<svg width="50" height="50" viewBox="0 0 50 50" fill="none" xmlns="http://www.w3.org/2000/svg">
<circle cx="25" cy="25" r="24.5" fill="#D6AE5D" stroke="black"/>
<circle cx="25.5" cy="24.5" r="18.5" fill="#3F3B37"/>
<path d="M25.8333 2C23.0975 2 20.3884 2.53887 17.8608 3.58584C15.3331 4.63282 13.0365 6.16739 11.1019 8.10194C7.19493 12.0089 5 17.308 5 22.8333C5 32.0417 10.9792 39.8542 19.25 42.625C20.2917 42.7917 20.625 42.1458 20.625 41.5833V38.0625C14.8542 39.3125 13.625 35.2708 13.625 35.2708C12.6667 32.8542 11.3125 32.2083 11.3125 32.2083C9.41667 30.9167 11.4583 30.9583 11.4583 30.9583C13.5417 31.1042 14.6458 33.1042 14.6458 33.1042C16.4583 36.2708 19.5208 35.3333 20.7083 34.8333C20.8958 33.4792 21.4375 32.5625 22.0208 32.0417C17.3958 31.5208 12.5417 29.7292 12.5417 21.7917C12.5417 19.4792 13.3333 17.625 14.6875 16.1458C14.4792 15.625 13.75 13.4583 14.8958 10.6458C14.8958 10.6458 16.6458 10.0833 20.625 12.7708C22.2708 12.3125 24.0625 12.0833 25.8333 12.0833C27.6042 12.0833 29.3958 12.3125 31.0417 12.7708C35.0208 10.0833 36.7708 10.6458 36.7708 10.6458C37.9167 13.4583 37.1875 15.625 36.9792 16.1458C38.3333 17.625 39.125 19.4792 39.125 21.7917C39.125 29.75 34.25 31.5 29.6042 32.0208C30.3542 32.6667 31.0417 33.9375 31.0417 35.875V41.5833C31.0417 42.1458 31.375 42.8125 32.4375 42.625C40.7083 39.8333 46.6667 32.0417 46.6667 22.8333C46.6667 20.0975 46.1278 17.3884 45.0808 14.8608C44.0339 12.3331 42.4993 10.0365 40.5647 8.10194C38.6302 6.16739 36.3335 4.63282 33.8059 3.58584C31.2783 2.53887 28.5692 2 25.8333 2Z" fill="#D6AE5D"/>
</svg>
