<svg width="50" height="50" viewBox="0 0 50 50" fill="none" xmlns="http://www.w3.org/2000/svg">
<circle cx="25" cy="25" r="25" fill="#3F3B37"/>
<circle cx="24.5" cy="24.5" r="18.5" fill="#C1C0B6"/>
<path d="M24.8333 2C22.0975 2 19.3884 2.53887 16.8608 3.58584C14.3331 4.63282 12.0365 6.16739 10.1019 8.10194C6.19493 12.0089 4 17.308 4 22.8333C4 32.0417 9.97917 39.8542 18.25 42.625C19.2917 42.7917 19.625 42.1458 19.625 41.5833V38.0625C13.8542 39.3125 12.625 35.2708 12.625 35.2708C11.6667 32.8542 10.3125 32.2083 10.3125 32.2083C8.41667 30.9167 10.4583 30.9583 10.4583 30.9583C12.5417 31.1042 13.6458 33.1042 13.6458 33.1042C15.4583 36.2708 18.5208 35.3333 19.7083 34.8333C19.8958 33.4792 20.4375 32.5625 21.0208 32.0417C16.3958 31.5208 11.5417 29.7292 11.5417 21.7917C11.5417 19.4792 12.3333 17.625 13.6875 16.1458C13.4792 15.625 12.75 13.4583 13.8958 10.6458C13.8958 10.6458 15.6458 10.0833 19.625 12.7708C21.2708 12.3125 23.0625 12.0833 24.8333 12.0833C26.6042 12.0833 28.3958 12.3125 30.0417 12.7708C34.0208 10.0833 35.7708 10.6458 35.7708 10.6458C36.9167 13.4583 36.1875 15.625 35.9792 16.1458C37.3333 17.625 38.125 19.4792 38.125 21.7917C38.125 29.75 33.25 31.5 28.6042 32.0208C29.3542 32.6667 30.0417 33.9375 30.0417 35.875V41.5833C30.0417 42.1458 30.375 42.8125 31.4375 42.625C39.7083 39.8333 45.6667 32.0417 45.6667 22.8333C45.6667 20.0975 45.1278 17.3884 44.0808 14.8608C43.0339 12.3331 41.4993 10.0365 39.5647 8.10194C37.6302 6.16739 35.3335 4.63282 32.8059 3.58584C30.2783 2.53887 27.5692 2 24.8333 2Z" fill="#3F3B37"/>
</svg>
