<svg width="24" height="24" viewBox="0 0 24 24" fill="none" xmlns="http://www.w3.org/2000/svg">
<path d="M16.2044 12.4272C16.1973 11.1206 16.7883 10.1344 17.9845 9.40809C17.3152 8.45037 16.3041 7.92345 14.9689 7.8202C13.705 7.72051 12.3236 8.55718 11.818 8.55718C11.284 8.55718 10.0592 7.8558 9.09795 7.8558C7.11128 7.88784 5 9.44013 5 12.5981C5 13.5309 5.1709 14.4946 5.51269 15.4891C5.96841 16.7957 7.61329 20 9.32937 19.9466C10.2266 19.9252 10.8603 19.3093 12.0281 19.3093C13.1603 19.3093 13.7477 19.9466 14.7482 19.9466C16.4785 19.9216 17.9667 17.0093 18.4011 15.6991C16.0798 14.6061 16.2044 12.4949 16.2044 12.4272ZM14.1892 6.58121C15.1612 5.42768 15.0722 4.37739 15.0437 4C14.1857 4.04984 13.1923 4.58389 12.6262 5.24254C12.0032 5.94748 11.6365 6.81975 11.7148 7.8024C12.644 7.8736 13.4914 7.39652 14.1892 6.58121Z" fill="#242426"/>
</svg>
