<svg width="28" height="28" viewBox="0 0 28 28" fill="none" xmlns="http://www.w3.org/2000/svg">
<path fill-rule="evenodd" clip-rule="evenodd" d="M17.9142 5.83329H10.0858C10.5878 4.14659 12.1502 2.91663 14 2.91663C15.8498 2.91663 17.4123 4.14659 17.9142 5.83329ZM4.29318 5.83329H8.28335C8.82384 3.17068 11.1779 1.16663 14 1.16663C16.8221 1.16663 19.1762 3.17068 19.7166 5.83329H23.7063C24.751 5.83329 25.563 6.7428 25.4451 7.78088L23.7216 22.9476C23.6211 23.8319 22.8728 24.5 21.9828 24.5H6.01667C5.12662 24.5 4.37836 23.8319 4.27786 22.9476L2.55438 7.78089C2.43641 6.7428 3.24842 5.83329 4.29318 5.83329ZM17.4698 12.8333C17.2971 12.8333 17.2339 12.9362 17.211 13.0032C17.1221 14.6993 15.7145 16.0521 13.9966 16.0521C12.2788 16.0521 10.8829 14.711 10.7834 13.025C10.7667 12.9607 10.7091 12.8361 10.519 12.8361C10.5017 12.8361 10.4871 12.835 10.4748 12.8333H8.48475C8.47133 12.8361 8.45456 12.8378 8.43388 12.8378C8.23151 12.8378 8.17952 12.9775 8.16667 13.0373C8.27456 16.16 10.8477 18.6666 13.9961 18.6666C17.1445 18.6666 19.7098 16.1678 19.8255 13.0524C19.821 13.0172 19.7869 12.8411 19.5689 12.8333H17.4855H17.4698Z" fill="#282A2E"/>
</svg>
