<svg width="28" height="28" viewBox="0 0 28 28" fill="none" xmlns="http://www.w3.org/2000/svg">
<path fill-rule="evenodd" clip-rule="evenodd" d="M2.33398 5.83337C2.33398 5.35012 2.72574 4.95837 3.20898 4.95837H24.7923C25.2756 4.95837 25.6673 5.35012 25.6673 5.83337C25.6673 6.31662 25.2756 6.70837 24.7923 6.70837H3.20898C2.72574 6.70837 2.33398 6.31662 2.33398 5.83337Z" fill="#282A2E"/>
<path fill-rule="evenodd" clip-rule="evenodd" d="M2.33398 14C2.33398 13.5168 2.72574 13.125 3.20898 13.125H24.7923C25.2756 13.125 25.6673 13.5168 25.6673 14C25.6673 14.4832 25.2756 14.875 24.7923 14.875H3.20898C2.72574 14.875 2.33398 14.4832 2.33398 14Z" fill="#282A2E"/>
<path fill-rule="evenodd" clip-rule="evenodd" d="M2.33398 22.1667C2.33398 21.6835 2.72574 21.2917 3.20898 21.2917H24.7923C25.2756 21.2917 25.6673 21.6835 25.6673 22.1667C25.6673 22.65 25.2756 23.0417 24.7923 23.0417H3.20898C2.72574 23.0417 2.33398 22.65 2.33398 22.1667Z" fill="#282A2E"/>
</svg>
