<svg width="24" height="24" viewBox="0 0 24 24" fill="none" xmlns="http://www.w3.org/2000/svg">
<path fill-rule="evenodd" clip-rule="evenodd" d="M12 2.74999C12.4142 2.74999 12.75 3.08578 12.75 3.49999L12.75 20.4706C12.75 20.8848 12.4142 21.2206 12 21.2206C11.5858 21.2206 11.25 20.8848 11.25 20.4706L11.25 3.49999C11.25 3.08578 11.5858 2.74999 12 2.74999Z" fill="#282A2E"/>
<path fill-rule="evenodd" clip-rule="evenodd" d="M21.2499 12C21.2499 12.4142 20.9141 12.75 20.4999 12.75L3.52933 12.75C3.11511 12.75 2.77933 12.4142 2.77932 12C2.77932 11.5858 3.11511 11.25 3.52933 11.25L20.4999 11.25C20.9141 11.25 21.2499 11.5858 21.2499 12Z" fill="#282A2E"/>
</svg>
