<svg width="28" height="28" viewBox="0 0 28 28" fill="none" xmlns="http://www.w3.org/2000/svg">
<g clip-path="url(#clip0_32_9978)">
<path d="M14 15C17.3137 15 20 12.3137 20 9C20 5.68629 17.3137 3 14 3C10.6863 3 8 5.68629 8 9C8 12.3137 10.6863 15 14 15Z" fill="#282A2E"/>
<path d="M24.1293 22.2598C21.9193 17.8398 17.0394 15.2898 12.0093 16.1698C8.38935 16.7998 5.35935 19.2698 3.71935 22.5498L3.57935 22.8398C3.30935 23.3698 3.69935 23.9998 4.29935 23.9998H23.7093C24.2993 23.9998 24.6894 23.3698 24.4293 22.8398L24.1393 22.2598H24.1293Z" fill="#282A2E"/>
</g>
<defs>
<clipPath id="clip0_32_9978">
<rect width="28" height="28" fill="white"/>
</clipPath>
</defs>
</svg>
