<svg width="24" height="24" viewBox="0 0 24 24" fill="none" xmlns="http://www.w3.org/2000/svg">
<g clip-path="url(#clip0_17955_8358)">
<path d="M20.83 19.84L19.83 18.84L17.02 16.03C18.45 14.37 19.21 12.12 18.88 9.7C18.39 6.12 15.43 3.25 11.84 2.87C6.72999 2.32 2.45999 6.6 3.00999 11.71C3.38999 15.24 6.15999 18.16 9.66999 18.71C12.02 19.08 14.2 18.42 15.87 17.13L18.71 19.97L19.71 20.97C19.98 21.24 20.43 21.24 20.7 20.97L20.84 20.83C21.11 20.56 21.11 20.11 20.84 19.84H20.83ZM4.55999 10.82C4.55999 7.29 7.42999 4.42 10.96 4.42C14.49 4.42 17.36 7.29 17.36 10.82C17.36 14.35 14.49 17.22 10.96 17.22C7.42999 17.22 4.55999 14.35 4.55999 10.82Z" fill="#7B3FF1"/>
</g>
<defs>
<clipPath id="clip0_17955_8358">
<rect width="24" height="24" fill="white"/>
</clipPath>
</defs>
</svg>
