<svg width="182" height="24" viewBox="0 0 182 24" fill="none" xmlns="http://www.w3.org/2000/svg">
<g clip-path="url(#clip0_2138_9313)">
<path fill-rule="evenodd" clip-rule="evenodd" d="M35.3893 1.26432C35.479 1.00213 35.7261 0.600098 36.402 0.600098H36.4633H44.6155C45.4686 0.630687 45.602 1.31895 45.6195 1.4566C45.1668 13.6334 35.129 23.4001 22.8098 23.4001C10.4906 23.4001 0.42216 13.6028 0 1.39761C0.0503092 1.16382 0.253734 0.617577 1.04556 0.617577C1.12649 0.617577 1.19211 0.611022 1.24461 0.600098H9.0316C9.07972 0.606653 9.1366 0.611022 9.2044 0.611022C9.94811 0.611022 10.1734 1.09827 10.239 1.34954C10.6284 7.93936 16.0902 13.1811 22.812 13.1811C29.5337 13.1811 35.0415 7.89348 35.3893 1.26432Z" fill="url(#paint0_linear_2138_9313)"/>
</g>
<path d="M51.4021 6.21246H57.7627V22.2271H62.4606V6.21246H68.8211V1.69287H51.4021V6.21246Z" fill="#040000"/>
<path d="M75.7272 1.69287H71.0293V22.2271H75.7272V1.69287Z" fill="#040000"/>
<path d="M102.909 14.0714H111.707V9.6154H102.909V6.21246H112.44V1.69287H98.2114V22.2271H112.588V17.7111H102.909V14.0714Z" fill="#040000"/>
<path d="M128.716 1.69287H120.756V22.2271H125.454V15.7746H128.716C132.77 15.7746 135.911 12.6367 135.911 8.73551C135.911 4.83432 132.77 1.69287 128.716 1.69287ZM130.106 10.8911C129.469 11.2904 128.443 11.361 127.948 11.3716H125.454V6.09231H128.203C128.73 6.12058 129.529 6.21953 130.071 6.54463C130.757 7.01107 131.213 7.80615 131.213 8.73551C131.213 9.66487 130.775 10.4246 130.109 10.8946" fill="#040000"/>
<path d="M142.654 1.69287H137.956V22.2271H142.654V1.69287Z" fill="#040000"/>
<path d="M155.071 6.57312C156.638 6.57312 158.138 7.24098 159.189 8.4071L162.783 5.18437C160.82 3.00055 158.011 1.74609 155.071 1.74609C149.358 1.74609 144.713 6.38936 144.713 12.0927C144.713 17.7961 149.362 22.4429 155.071 22.4429C157.983 22.4429 160.777 21.2097 162.737 19.0541L159.164 15.8102C158.117 16.9586 156.628 17.6194 155.071 17.6194C152.022 17.6194 149.542 15.1423 149.542 12.0963C149.542 9.05023 152.022 6.57312 155.071 6.57312Z" fill="#040000"/>
<path d="M174.778 11.1314L181.768 1.69287H176.193L170.381 9.54473C170.013 9.49172 169.486 9.44932 169.107 9.42812V1.6964H164.409V22.2307H169.107V14.3152C170.041 14.3505 170.922 14.4742 171.725 14.9053C174.343 16.3082 176.122 19.0362 176.126 22.2236H180.969C180.969 17.4637 178.556 13.347 174.785 11.1349" fill="#040000"/>
<path d="M95.4518 8.76714C95.4518 4.86594 92.3105 1.72803 88.2564 1.72803H79.2214V22.2623H83.9193V15.8098V15.619C85.9499 15.6649 87.7505 15.7603 89.0877 17.0996C90.5488 18.559 91.0193 20.294 91.1997 22.2658H95.657C95.657 19.3611 94.2031 15.99 92.3883 14.3504C94.3092 13.1807 95.4483 11.0534 95.4483 8.77421M89.5901 10.9368C88.9781 11.3185 88.0123 11.3997 87.5029 11.4139H83.9158V6.13454H87.6621C88.1432 6.15928 88.872 6.24055 89.4167 6.50558H89.4238C89.4733 6.53385 89.5193 6.55858 89.5653 6.58685C90.2693 7.0533 90.7504 7.84485 90.7504 8.77068C90.7504 9.6965 90.2834 10.4633 89.5936 10.9333" fill="#040000"/>
<defs>
<linearGradient id="paint0_linear_2138_9313" x1="0.482706" y1="11.6224" x2="46.1023" y2="11.6224" gradientUnits="userSpaceOnUse">
<stop stop-color="#29C9FF"/>
<stop offset="0.07" stop-color="#32B9FC"/>
<stop offset="0.37" stop-color="#5977F2"/>
<stop offset="0.59" stop-color="#714EEB"/>
<stop offset="0.71" stop-color="#7B3FE9"/>
<stop offset="1" stop-color="#D413E5"/>
</linearGradient>
<clipPath id="clip0_2138_9313">
<rect width="45.6195" height="22.8" fill="white" transform="translate(0 0.600098)"/>
</clipPath>
</defs>
</svg>
