<svg width="56" height="56" viewBox="0 0 56 56" fill="none" xmlns="http://www.w3.org/2000/svg">
<g filter="url(#filter0_iii_2329_122653)">
<path d="M33.8422 12.2557C24.7447 17.5901 17.3947 30.5224 17.4243 41.1392C17.4538 51.7568 24.8521 56.0399 33.9497 50.7048C43.0464 45.3704 50.3972 32.4381 50.3676 21.8205C50.338 11.2037 42.939 6.92128 33.8422 12.2557Z" fill="url(#paint0_linear_2329_122653)"/>
</g>
<g filter="url(#filter1_i_2329_122653)">
<path d="M22.0501 5.29515C26.6278 2.61037 30.7755 2.3613 33.77 4.12894L45.5635 11.0903C45.2663 10.9152 44.9584 10.7599 44.6396 10.6244C41.7417 9.39594 37.9668 9.83767 33.8429 12.2558C24.7454 17.5902 17.3954 30.5226 17.4249 41.1393C17.4394 46.4144 19.2734 50.1255 22.2297 51.8704L10.437 44.9098C7.48 43.1641 5.64664 39.453 5.63222 34.1787C5.60265 23.5619 12.9534 10.6295 22.0501 5.29515Z" fill="url(#paint1_linear_2329_122653)"/>
</g>
<path d="M33.7417 15.6988C26.0888 20.1864 19.9043 31.0662 19.9295 39.9981C19.9548 48.93 26.1789 52.5327 33.8318 48.0451C41.4854 43.5568 47.6692 32.6778 47.644 23.7458C47.6187 14.8139 41.3953 11.2105 33.7417 15.6988Z" fill="#575757"/>
<path d="M36.357 15.8964C36.3556 15.3639 36.3311 14.8504 36.2871 14.3559C42.5567 12.2337 47.2756 15.9704 47.2973 23.7449C47.3225 32.6769 41.1388 43.5559 33.4851 48.0442C26.2888 52.2644 20.356 49.3298 19.6528 41.5377C20.5861 41.222 21.5532 40.7774 22.5449 40.1957C30.1985 35.7074 36.3823 24.8284 36.357 15.8964Z" fill="url(#paint2_linear_2329_122653)"/>
<path d="M47.1913 24.1721C47.166 15.2401 40.9426 11.6367 33.289 16.1251C32.2324 16.7448 31.2046 17.4861 30.2166 18.3271C31.5862 16.9931 33.051 15.846 34.5742 14.9522C42.2278 10.4639 48.452 14.0673 48.4765 22.9993C48.4981 30.6983 43.9061 39.8434 37.7367 45.0965C43.2476 39.7284 47.2115 31.3261 47.1913 24.1721Z" fill="#363636"/>
<path d="M36.6274 5.83149L35.6105 5.23153C32.6153 3.4639 28.4682 3.71296 23.8899 6.39701L24.9068 6.99697C29.1303 4.52023 32.9867 4.1166 35.9105 5.45715C36.1558 5.56997 36.3952 5.6945 36.6267 5.83149H36.6274Z" fill="#363636"/>
<path d="M12.2774 46.0116L13.039 46.4379C12.5702 46.161 12.136 45.8394 11.7365 45.4724C9.62041 43.5268 8.50107 40.319 8.48881 35.8812C8.45924 25.2637 15.8099 12.3321 24.9067 6.99693L23.8898 6.39697C14.7923 11.7314 7.44231 24.6637 7.47188 35.2813C7.48631 40.5556 9.31966 44.2667 12.2767 46.0123L12.2774 46.0116Z" fill="#363636"/>
<path d="M39.7046 7.68012L38.6877 7.08016C35.6924 5.31253 31.5454 5.5616 26.9671 8.24564L27.984 8.8456C32.5616 6.16082 36.7093 5.91175 39.7046 7.68012Z" fill="#363636"/>
<path d="M15.9234 22.0817C18.9208 16.5327 23.212 11.6444 27.9844 8.84605L26.9674 8.24609C17.8699 13.5805 10.5199 26.5129 10.5495 37.1304C10.5639 42.4047 12.3973 46.1158 15.3543 47.8614L15.689 48.0438L16.4232 48.4438C16.2566 48.3457 16.0936 48.2409 15.9335 48.1303C13.2592 46.2769 11.5794 42.708 11.5657 37.7303C11.5513 32.6824 13.2058 27.1113 15.9226 22.0824" fill="#363636"/>
<path d="M42.7835 9.48262L41.812 8.87827C38.9141 7.12968 34.7663 7.37875 30.1887 10.0635L31.2057 10.6635C35.5438 8.11935 39.4557 7.767 42.3197 9.2255C42.4777 9.30608 42.6327 9.39179 42.7842 9.48335L42.7835 9.48262Z" fill="#363636"/>
<path d="M18.576 49.6783L19.5929 50.2783C16.6359 48.5326 14.8025 44.8216 14.7881 39.5472C14.7586 28.9297 22.1093 15.9981 31.2061 10.6629L30.1891 10.063C21.0916 15.3974 13.7416 28.3298 13.7712 38.9473C13.7856 44.2216 15.619 47.9327 18.576 49.6783Z" fill="#363636"/>
<path d="M36.1446 8.14941L39.9541 10.0394C39.6793 10.0723 39.4009 10.1156 39.1189 10.1698L35.952 8.55231L36.1439 8.14941H36.1446Z" fill="#363636"/>
<path d="M32.8037 9.43018L36.0889 11.1165C35.9042 11.1949 35.7189 11.2791 35.5328 11.3663L32.6126 9.83308L32.8037 9.43018Z" fill="#363636"/>
<path d="M29.6748 11.3157L32.7861 12.9156C32.6383 13.013 32.4919 13.1126 32.3455 13.2137L29.4844 11.7178L29.6755 11.3149L29.6748 11.3157Z" fill="#363636"/>
<path d="M26.7227 13.4922L29.9019 15.1228C29.7778 15.2313 29.6545 15.3404 29.5319 15.4517L26.5316 13.8951L26.7227 13.4922Z" fill="#363636"/>
<path d="M24.0976 16.0728L27.2695 17.7085C27.1635 17.825 27.0582 17.9415 26.9536 18.0602L23.9065 16.4757L24.0976 16.0728Z" fill="#363636"/>
<path d="M21.585 19.4834L24.6675 20.9067C24.5766 21.0313 24.4872 21.1573 24.3977 21.2825L21.4184 19.8958L21.585 19.4841V19.4834Z" fill="#363636"/>
<path d="M19.3581 22.7188L22.4673 24.2739C22.3916 24.4036 22.3158 24.534 22.2415 24.6644L19.1771 23.1253L19.3581 22.7188Z" fill="#363636"/>
<path d="M17.2656 26.9731L20.3149 28.4961C20.2551 28.6324 20.1959 28.7693 20.1375 28.9063L17.0846 27.3797L17.2656 26.9731Z" fill="#363636"/>
<path d="M15.6302 31.4805L18.6665 33.0056C18.6247 33.1492 18.5828 33.2935 18.5425 33.4378L15.4477 31.887L15.6302 31.4812V31.4805Z" fill="#363636"/>
<path d="M14.6317 36.0693L17.6709 37.5967C17.65 37.7498 17.6305 37.9022 17.6118 38.0545L14.4492 36.4759L14.6317 36.0701V36.0693Z" fill="#363636"/>
<path d="M14.49 40.9824L17.4499 42.1325C17.4579 42.2973 17.468 42.46 17.4795 42.6211L14.3061 41.3883L14.49 40.9824Z" fill="#363636"/>
<path d="M15.3966 45.1699L18.1509 46.3222C18.2115 46.5163 18.2757 46.7068 18.3428 46.8936L15.1925 45.5677L15.3966 45.1707V45.1699Z" fill="#363636"/>
<path d="M29.2162 4.73096L26.3241 3.44388C26.5527 3.38161 26.7799 3.32447 27.0049 3.27539L29.3965 4.33172L29.2162 4.73096Z" fill="#363636"/>
<path d="M25.9403 5.97487L23.1456 4.69584C23.3143 4.6094 23.4831 4.52662 23.6504 4.44678L26.1206 5.57563L25.9403 5.97487Z" fill="#363636"/>
<path d="M22.4979 7.7854L20.0133 6.6353C20.1489 6.53568 20.2859 6.43825 20.4222 6.34229L22.6782 7.38616L22.4979 7.7854Z" fill="#363636"/>
<path d="M19.2142 10.3559L16.889 9.28716C17.0015 9.17802 17.1147 9.06887 17.228 8.96191L19.3945 9.95671L19.2142 10.3559Z" fill="#363636"/>
<path d="M16.4169 13.1743L14.2741 12.1363C14.37 12.0198 14.4667 11.9033 14.5633 11.7876L16.5972 12.7743L16.4169 13.1736V13.1743Z" fill="#363636"/>
<path d="M13.4647 17.2092L11.3241 16.2401C11.402 16.1155 11.4813 15.991 11.5607 15.8672L13.645 16.81L13.4647 17.2092Z" fill="#363636"/>
<path d="M11.4535 21.0368L9.19245 20.086C9.25592 19.9549 9.32011 19.8238 9.38574 19.6934L11.6338 20.6369L11.4535 21.0361V21.0368Z" fill="#363636"/>
<path d="M9.19962 26.4348L7.03162 25.5242C7.07561 25.3821 7.12105 25.24 7.16721 25.0972L9.42969 26.0473L9.19962 26.4341V26.4348Z" fill="#363636"/>
<path d="M7.64571 32.1911L5.76116 31.6263C5.77702 31.4703 5.79361 31.3142 5.81236 31.1582L7.92627 31.7919L7.64571 32.1911Z" fill="#363636"/>
<path d="M7.62171 37.6505L5.86409 37.214C5.83812 37.0491 5.81432 36.8821 5.79196 36.7129L7.95996 37.2513L7.62171 37.6505Z" fill="#363636"/>
<path d="M9.32617 42.4989L7.70775 42.2696C7.59524 42.0989 7.48633 41.9239 7.38247 41.7422L9.2591 42.0132L9.32617 42.4989Z" fill="#363636"/>
<path fill-rule="evenodd" clip-rule="evenodd" d="M33.199 6.29443L37.3965 8.15217L39.8525 8.15217L35.655 6.29443L33.199 6.29443Z" fill="url(#paint3_linear_2329_122653)"/>
<path fill-rule="evenodd" clip-rule="evenodd" d="M29.3375 7.84553L32.7748 9.12455L35.2642 8.23313L31.8268 6.9541L29.3375 7.84553Z" fill="url(#paint4_linear_2329_122653)"/>
<path fill-rule="evenodd" clip-rule="evenodd" d="M25.8959 9.97724L29.2856 11.1332L31.249 9.97724L27.8593 8.82128L25.8959 9.97724Z" fill="url(#paint5_linear_2329_122653)"/>
<path fill-rule="evenodd" clip-rule="evenodd" d="M22.6461 12.4963L26.1268 13.2897L27.8081 11.9149L24.3275 11.1216L22.6461 12.4963Z" fill="url(#paint6_linear_2329_122653)"/>
<path fill-rule="evenodd" clip-rule="evenodd" d="M20.5213 15.052L23.8995 15.7648L25.2598 14.1781L21.8816 13.4653L20.5213 15.052Z" fill="url(#paint7_linear_2329_122653)"/>
<path fill-rule="evenodd" clip-rule="evenodd" d="M17.7105 18.2837L21.6715 18.6515L22.6455 16.9537L18.6845 16.5859L17.7105 18.2837Z" fill="url(#paint8_linear_2329_122653)"/>
<path fill-rule="evenodd" clip-rule="evenodd" d="M15.4867 21.8399L19.5155 22.1593L20.5566 19.9864L16.5279 19.667L15.4867 21.8399Z" fill="url(#paint9_linear_2329_122653)"/>
<path fill-rule="evenodd" clip-rule="evenodd" d="M13.9251 25.869L17.8341 25.891L18.6313 23.5654L14.7223 23.5435L13.9251 25.869Z" fill="url(#paint10_linear_2329_122653)"/>
<path fill-rule="evenodd" clip-rule="evenodd" d="M11.7916 30.6316L15.7633 30.5195L16.2959 28.082L12.3241 28.1941L11.7916 30.6316Z" fill="url(#paint11_linear_2329_122653)"/>
<path fill-rule="evenodd" clip-rule="evenodd" d="M11.2313 35.5413L14.8071 34.9772L15.1328 32.6689L11.557 33.233L11.2313 35.5413Z" fill="url(#paint12_linear_2329_122653)"/>
<path fill-rule="evenodd" clip-rule="evenodd" d="M11.4684 40.8714L14.1211 40.4033L14.0262 37.8096L11.3735 38.2777L11.4684 40.8714Z" fill="url(#paint13_linear_2329_122653)"/>
<path fill-rule="evenodd" clip-rule="evenodd" d="M12.8998 45.3453L14.8716 44.9703L14.4485 42.6846L11.9401 42.9228L12.8998 45.3453Z" fill="url(#paint14_linear_2329_122653)"/>
<path fill-rule="evenodd" clip-rule="evenodd" d="M30.9057 4.49531L31.2987 6.59625L32.9697 6.45787L32.5767 4.35693L30.9057 4.49531Z" fill="url(#paint15_linear_2329_122653)"/>
<path fill-rule="evenodd" clip-rule="evenodd" d="M26.6097 5.91332L27.0432 8.23256L29.1972 7.25723L28.7637 4.93799L26.6097 5.91332Z" fill="url(#paint16_linear_2329_122653)"/>
<path fill-rule="evenodd" clip-rule="evenodd" d="M22.7189 7.98921L23.4105 10.7524L25.4404 9.44578L24.7488 6.68262L22.7189 7.98921Z" fill="url(#paint17_linear_2329_122653)"/>
<path fill-rule="evenodd" clip-rule="evenodd" d="M19.7779 10.5581L20.7191 13.5411L22.6309 11.7969L21.6897 8.81396L19.7779 10.5581Z" fill="url(#paint18_linear_2329_122653)"/>
<path fill-rule="evenodd" clip-rule="evenodd" d="M17.0866 13.2341L18.2486 16.7599L19.7227 15.1456L18.6309 11.7212L17.0866 13.2341Z" fill="url(#paint19_linear_2329_122653)"/>
<path fill-rule="evenodd" clip-rule="evenodd" d="M14.5655 17.1478L15.7635 20.2956L17.293 17.97L16.095 14.8223L14.5655 17.1478Z" fill="url(#paint20_linear_2329_122653)"/>
<path fill-rule="evenodd" clip-rule="evenodd" d="M12.3219 20.718L14.0557 23.7068L15.0366 21.4663L13.3028 18.4775L12.3219 20.718Z" fill="url(#paint21_linear_2329_122653)"/>
<path fill-rule="evenodd" clip-rule="evenodd" d="M10.0279 24.7058L12.3164 27.8704L13.4692 25.2872L11.1808 22.1226L10.0279 24.7058Z" fill="url(#paint22_linear_2329_122653)"/>
<path fill-rule="evenodd" clip-rule="evenodd" d="M8.51556 30.5958L10.9836 33.8139L11.731 31.0242L9.26293 27.8062L8.51556 30.5958Z" fill="url(#paint23_linear_2329_122653)"/>
<path fill-rule="evenodd" clip-rule="evenodd" d="M7.81093 36.3724L10.7925 38.4653L10.7925 35.9459L7.81094 33.853L7.81093 36.3724Z" fill="url(#paint24_linear_2329_122653)"/>
<path fill-rule="evenodd" clip-rule="evenodd" d="M9.07187 42.1477L12.0679 43.8746L11.3031 41.1615L8.49831 39.2407L9.07187 42.1477Z" fill="url(#paint25_linear_2329_122653)"/>
<path d="M39.48 41.2131L37.2182 39.8784C35.5349 41.9076 33.6135 43.6247 31.5732 44.8216L33.835 46.1563C35.8753 44.9601 37.7966 43.2423 39.48 41.2131Z" fill="#E0E0EE"/>
<path d="M45.7198 22.6277L43.458 21.293C43.5749 22.0065 43.6369 22.7734 43.6391 23.5924C43.6499 27.5379 42.2745 31.9185 40.0466 35.793L42.3084 37.1277C44.5355 33.254 45.9116 28.8734 45.9008 24.9271C45.8987 24.1081 45.8366 23.3404 45.7198 22.6277Z" fill="#E0E0EE"/>
<path d="M35.4995 38.8496L33.2378 37.5142L37.2182 39.8788L39.48 41.2135L35.4995 38.8496Z" fill="#E0E0EE"/>
<path d="M33.835 46.1565L31.5732 44.8218C29.5357 46.0166 27.6144 46.555 25.9267 46.5052L28.1885 47.8399C29.8762 47.8897 31.7975 47.3513 33.835 46.1565Z" fill="#E0E0EE"/>
<path d="M44.6035 19.3469L42.3418 18.0122L36.8172 22.2412L39.0789 23.5759L44.6035 19.3469Z" fill="#E0E0EE"/>
<path d="M42.3701 17.0408L40.1084 15.7061C41.0056 16.2357 41.7621 17.0115 42.3413 18.0121L44.603 19.3468C44.0232 18.3454 43.2666 17.5697 42.3701 17.0408Z" fill="#D8D8E5"/>
<path d="M22.9585 45.6777L25.2202 47.0124C25.2621 47.0373 25.3046 47.0615 25.3472 47.085L23.0854 45.7503C23.0429 45.7268 23.001 45.7026 22.9585 45.6777Z" fill="#E0E0EE"/>
<path d="M34.821 22.5428L37.0828 23.8775C37.5487 24.1529 38.192 24.1053 38.8829 23.7002C38.9478 23.6621 39.0135 23.6211 39.0791 23.5764L36.8173 22.2417C36.7517 22.2864 36.6861 22.3274 36.6212 22.3655C35.9302 22.7706 35.2876 22.8182 34.821 22.5428Z" fill="#E0E0EE"/>
<path d="M27.8989 39.6643L25.6372 38.3296L23.0855 45.7503L25.3465 47.085L27.8989 39.6643Z" fill="#E0E0EE"/>
<path d="M27.355 36.7556L25.0932 35.4209C25.8008 35.8384 26.0373 36.9695 25.6363 38.3291L27.8981 39.6638C28.2991 38.3035 28.0625 37.1731 27.355 36.7556Z" fill="#E0E0EE"/>
<path d="M31.147 25.9485L28.8852 24.6138C28.6205 26.117 27.5957 27.6582 26.4287 28.3424C26.3638 28.3805 26.2982 28.4164 26.2326 28.4486L28.4943 29.7833C28.5599 29.7511 28.6256 29.7152 28.6905 29.6771C29.8574 28.9929 30.883 27.4517 31.147 25.9485Z" fill="#E0E0EE"/>
<path d="M31.9829 19.0884L29.4846 19.6935L28.8853 24.6132L31.147 25.9487L31.9829 19.0884Z" fill="#E0E0EE"/>
<path d="M28.4932 29.7834L26.2314 28.4487L22.2207 30.083L22.952 32.0419L28.4932 29.7834Z" fill="#E0E0EE"/>
<g filter="url(#filter2_i_2329_122653)">
<path d="M33.7489 15.6196C25.985 20.1723 19.7118 31.2089 19.737 40.2697C19.7623 49.3306 26.0766 52.986 33.8405 48.4332C41.6045 43.8804 47.8777 32.8439 47.8525 23.783C47.8272 14.7222 41.5129 11.0668 33.7489 15.6196ZM25.346 47.0846C23.0986 45.8341 21.6995 43.0768 21.6886 39.1255C21.6865 38.3036 21.7442 37.4633 21.8574 36.6121L26.836 36.5894C27.9316 36.6971 28.3852 38.0113 27.8984 39.6632L25.3467 47.0839L25.346 47.0846ZM33.8348 46.1557C31.7973 47.3505 29.876 47.8889 28.1883 47.8391L32.1464 40.8147C32.6238 40.0397 33.2224 39.4412 33.8211 39.0903C34.4197 38.7394 35.0197 38.6347 35.4993 38.8486L39.4798 41.2132C37.7964 43.2424 35.8751 44.9595 33.8348 46.1565V46.1557ZM39.7272 32.7274C39.2324 31.6513 39.6781 29.8097 40.7686 28.4193L45.7205 22.6271C45.8374 23.3406 45.8994 24.1076 45.9016 24.9266C45.9124 28.872 44.537 33.2527 42.3091 37.1271L39.7264 32.7274H39.7272ZM22.9522 32.0418C24.6774 26.9879 28.0138 22.0967 31.9827 19.0882L31.146 25.9485C30.8814 27.4516 29.8565 28.9929 28.6896 29.6771C28.6246 29.7152 28.559 29.7511 28.4934 29.7833L22.9529 32.0418H22.9522ZM35.5419 17.0026C39.5094 15.3617 42.8573 16.3323 44.6026 19.3467L39.0781 23.5757C39.0124 23.6204 38.9468 23.6614 38.8819 23.6995C37.7149 24.3837 36.6843 24.0482 36.4124 22.8593L35.5419 17.0019" fill="url(#paint26_linear_2329_122653)"/>
</g>
<path d="M33.9907 26.5849C34.1155 26.5117 34.2287 26.5051 34.3109 26.5534L34.5396 26.6882C34.4581 26.6399 34.3448 26.6465 34.2193 26.7197C33.9705 26.8655 33.77 27.2193 33.7707 27.5094C33.7707 27.6537 33.8212 27.7548 33.902 27.8024L33.6734 27.6676C33.5926 27.62 33.5428 27.5189 33.5421 27.3746C33.5414 27.0845 33.7426 26.7307 33.9907 26.5849Z" fill="#C3C3D8"/>
<path d="M34.2175 26.7192C33.9679 26.8657 33.7667 27.2203 33.7674 27.5111C33.7682 27.8019 33.9715 27.9191 34.2204 27.7726C34.4699 27.6261 34.6711 27.2723 34.6704 26.9815C34.6697 26.6907 34.467 26.5727 34.2175 26.7192Z" fill="#E0E0EE"/>
<path d="M36.8344 34.8271C36.9592 34.7539 37.0725 34.7473 37.1547 34.7956L37.3833 34.9304C37.3018 34.8821 37.1886 34.8887 37.0631 34.9619C36.8143 35.1077 36.6138 35.4615 36.6145 35.7516C36.6145 35.8959 36.665 35.997 36.7457 36.0446L36.5171 35.9098C36.4363 35.8622 36.3866 35.7611 36.3858 35.6168C36.3851 35.3267 36.5863 34.9729 36.8344 34.8271Z" fill="#C3C3D8"/>
<path d="M37.0607 34.9609C36.8112 35.1074 36.61 35.462 36.6107 35.7528C36.6114 36.0436 36.8148 36.1608 37.0636 36.0143C37.3132 35.8678 37.5144 35.514 37.5137 35.2232C37.5129 34.9324 37.3103 34.8144 37.0607 34.9609Z" fill="#E0E0EE"/>
<path d="M31.0307 37.0566C31.1555 36.9834 31.2687 36.9768 31.351 37.0251L31.5796 37.1599C31.4981 37.1116 31.3849 37.1181 31.2594 37.1914C31.0105 37.3372 30.81 37.691 30.8108 37.9811C30.8108 38.1254 30.8613 38.2265 30.942 38.2741L30.7134 38.1393C30.6326 38.0917 30.5829 37.9906 30.5821 37.8463C30.5814 37.5562 30.7826 37.2024 31.0307 37.0566Z" fill="#C3C3D8"/>
<path d="M31.258 37.1904C31.0085 37.3369 30.8072 37.6915 30.808 37.9823C30.8087 38.2731 31.0121 38.3903 31.2609 38.2438C31.5104 38.0973 31.7117 37.7435 31.7109 37.4527C31.7102 37.1619 31.5076 37.0439 31.258 37.1904Z" fill="#E0E0EE"/>
<path d="M29.2007 32.8115C29.3254 32.7382 29.4387 32.7317 29.5209 32.78L29.7495 32.9148C29.668 32.8664 29.5548 32.873 29.4293 32.9463C29.1805 33.0921 28.98 33.4459 28.9807 33.736C28.9807 33.8803 29.0312 33.9814 29.112 34.029L28.8833 33.8942C28.8025 33.8466 28.7528 33.7455 28.7521 33.6012C28.7513 33.3111 28.9526 32.9573 29.2007 32.8115Z" fill="#C3C3D8"/>
<path d="M29.4279 32.9448C29.1784 33.0913 28.9772 33.4459 28.9779 33.7367C28.9786 34.0275 29.182 34.1447 29.4308 33.9982C29.6796 33.8517 29.8816 33.4979 29.8809 33.2071C29.8801 32.9162 29.6775 32.7983 29.4279 32.9448Z" fill="#E0E0EE"/>
<path d="M38.0771 27.7505C38.2019 27.6772 38.3151 27.6706 38.3973 27.719L38.626 27.8538C38.5445 27.8054 38.4312 27.812 38.3058 27.8853C38.0569 28.031 37.8564 28.3848 37.8572 28.6749C37.8572 28.8192 37.9076 28.9203 37.9884 28.968L37.7598 28.8332C37.679 28.7856 37.6292 28.6845 37.6285 28.5401C37.6278 28.2501 37.829 27.8962 38.0771 27.7505Z" fill="#C3C3D8"/>
<path d="M38.3039 27.8848C38.0544 28.0313 37.8531 28.3858 37.8539 28.6766C37.8546 28.9675 38.058 29.0847 38.3068 28.9382C38.5563 28.7916 38.7576 28.4378 38.7568 28.147C38.7561 27.8562 38.5534 27.7382 38.3039 27.8848Z" fill="#E0E0EE"/>
<g filter="url(#filter3_i_2329_122653)">
<path d="M33.789 29.9009C32.8312 30.4627 32.0573 31.8245 32.0602 32.9424C32.0631 34.0602 32.8427 34.5115 33.8005 33.9496C34.7583 33.3878 35.5322 32.026 35.5293 30.9081C35.5264 29.7902 34.7468 29.339 33.789 29.9009Z" fill="#E0E0EE"/>
</g>
<defs>
<filter id="filter0_iii_2329_122653" x="17.4243" y="8.96094" width="32.9434" height="46.0391" filterUnits="userSpaceOnUse" color-interpolation-filters="sRGB">
<feFlood flood-opacity="0" result="BackgroundImageFix"/>
<feBlend mode="normal" in="SourceGraphic" in2="BackgroundImageFix" result="shape"/>
<feColorMatrix in="SourceAlpha" type="matrix" values="0 0 0 0 0 0 0 0 0 0 0 0 0 0 0 0 0 0 127 0" result="hardAlpha"/>
<feOffset dy="2"/>
<feGaussianBlur stdDeviation="1"/>
<feComposite in2="hardAlpha" operator="arithmetic" k2="-1" k3="1"/>
<feColorMatrix type="matrix" values="0 0 0 0 1 0 0 0 0 1 0 0 0 0 1 0 0 0 0.4 0"/>
<feBlend mode="normal" in2="shape" result="effect1_innerShadow_2329_122653"/>
<feColorMatrix in="SourceAlpha" type="matrix" values="0 0 0 0 0 0 0 0 0 0 0 0 0 0 0 0 0 0 127 0" result="hardAlpha"/>
<feOffset dy="-1"/>
<feGaussianBlur stdDeviation="2"/>
<feComposite in2="hardAlpha" operator="arithmetic" k2="-1" k3="1"/>
<feColorMatrix type="matrix" values="0 0 0 0 0 0 0 0 0 0 0 0 0 0 0 0 0 0 1 0"/>
<feBlend mode="normal" in2="effect1_innerShadow_2329_122653" result="effect2_innerShadow_2329_122653"/>
<feColorMatrix in="SourceAlpha" type="matrix" values="0 0 0 0 0 0 0 0 0 0 0 0 0 0 0 0 0 0 127 0" result="hardAlpha"/>
<feOffset dy="0.2"/>
<feGaussianBlur stdDeviation="0.5"/>
<feComposite in2="hardAlpha" operator="arithmetic" k2="-1" k3="1"/>
<feColorMatrix type="matrix" values="0 0 0 0 1 0 0 0 0 1 0 0 0 0 1 0 0 0 0.4 0"/>
<feBlend mode="normal" in2="effect2_innerShadow_2329_122653" result="effect3_innerShadow_2329_122653"/>
</filter>
<filter id="filter1_i_2329_122653" x="5.63232" y="1" width="39.9312" height="50.8706" filterUnits="userSpaceOnUse" color-interpolation-filters="sRGB">
<feFlood flood-opacity="0" result="BackgroundImageFix"/>
<feBlend mode="normal" in="SourceGraphic" in2="BackgroundImageFix" result="shape"/>
<feColorMatrix in="SourceAlpha" type="matrix" values="0 0 0 0 0 0 0 0 0 0 0 0 0 0 0 0 0 0 127 0" result="hardAlpha"/>
<feOffset dy="-2"/>
<feGaussianBlur stdDeviation="1"/>
<feComposite in2="hardAlpha" operator="arithmetic" k2="-1" k3="1"/>
<feColorMatrix type="matrix" values="0 0 0 0 0 0 0 0 0 0 0 0 0 0 0 0 0 0 0.4 0"/>
<feBlend mode="normal" in2="shape" result="effect1_innerShadow_2329_122653"/>
</filter>
<filter id="filter2_i_2329_122653" x="19.7368" y="13.6611" width="28.1157" height="37.7305" filterUnits="userSpaceOnUse" color-interpolation-filters="sRGB">
<feFlood flood-opacity="0" result="BackgroundImageFix"/>
<feBlend mode="normal" in="SourceGraphic" in2="BackgroundImageFix" result="shape"/>
<feColorMatrix in="SourceAlpha" type="matrix" values="0 0 0 0 0 0 0 0 0 0 0 0 0 0 0 0 0 0 127 0" result="hardAlpha"/>
<feOffset dy="1"/>
<feGaussianBlur stdDeviation="0.5"/>
<feComposite in2="hardAlpha" operator="arithmetic" k2="-1" k3="1"/>
<feColorMatrix type="matrix" values="0 0 0 0 1 0 0 0 0 1 0 0 0 0 1 0 0 0 0.8 0"/>
<feBlend mode="normal" in2="shape" result="effect1_innerShadow_2329_122653"/>
</filter>
<filter id="filter3_i_2329_122653" x="32.0601" y="29.6592" width="3.46924" height="5.53223" filterUnits="userSpaceOnUse" color-interpolation-filters="sRGB">
<feFlood flood-opacity="0" result="BackgroundImageFix"/>
<feBlend mode="normal" in="SourceGraphic" in2="BackgroundImageFix" result="shape"/>
<feColorMatrix in="SourceAlpha" type="matrix" values="0 0 0 0 0 0 0 0 0 0 0 0 0 0 0 0 0 0 127 0" result="hardAlpha"/>
<feOffset dy="1"/>
<feGaussianBlur stdDeviation="0.5"/>
<feComposite in2="hardAlpha" operator="arithmetic" k2="-1" k3="1"/>
<feColorMatrix type="matrix" values="0 0 0 0 0 0 0 0 0 0 0 0 0 0 0 0 0 0 0.1 0"/>
<feBlend mode="normal" in2="shape" result="effect1_innerShadow_2329_122653"/>
</filter>
<linearGradient id="paint0_linear_2329_122653" x1="46.1076" y1="48.8013" x2="65.8128" y2="1.40217" gradientUnits="userSpaceOnUse">
<stop stop-color="#575757"/>
<stop offset="0.559661" stop-opacity="0.466381"/>
<stop offset="1" stop-color="#050505"/>
</linearGradient>
<linearGradient id="paint1_linear_2329_122653" x1="14" y1="46.5" x2="34.924" y2="6.19545" gradientUnits="userSpaceOnUse">
<stop stop-color="#4A4A4A"/>
<stop offset="0.397274" stop-color="#3A3A3A"/>
<stop offset="0.630143" stop-color="#A4A4A4"/>
<stop offset="1" stop-color="#3F3F3F"/>
</linearGradient>
<linearGradient id="paint2_linear_2329_122653" x1="33.4751" y1="13.7681" x2="33.4751" y2="49.9747" gradientUnits="userSpaceOnUse">
<stop stop-color="#696969"/>
<stop offset="0.49716" stop-color="#B6B6B6"/>
<stop offset="0.976337" stop-color="#131313"/>
</linearGradient>
<linearGradient id="paint3_linear_2329_122653" x1="36.5258" y1="6.29443" x2="36.5258" y2="8.15217" gradientUnits="userSpaceOnUse">
<stop stop-color="#363636"/>
<stop offset="1" stop-color="#363636"/>
</linearGradient>
<linearGradient id="paint4_linear_2329_122653" x1="32.3008" y1="6.9541" x2="32.3008" y2="9.12455" gradientUnits="userSpaceOnUse">
<stop stop-color="#363636"/>
<stop offset="1" stop-color="#363636"/>
</linearGradient>
<linearGradient id="paint5_linear_2329_122653" x1="28.5724" y1="8.82129" x2="28.5724" y2="11.1332" gradientUnits="userSpaceOnUse">
<stop stop-color="#363636"/>
<stop offset="1" stop-color="#363636"/>
</linearGradient>
<linearGradient id="paint6_linear_2329_122653" x1="25.2271" y1="11.1216" x2="25.2271" y2="13.2897" gradientUnits="userSpaceOnUse">
<stop stop-color="#363636"/>
<stop offset="1" stop-color="#363636"/>
</linearGradient>
<linearGradient id="paint7_linear_2329_122653" x1="22.8905" y1="13.4653" x2="22.8905" y2="15.7648" gradientUnits="userSpaceOnUse">
<stop stop-color="#363636"/>
<stop offset="1" stop-color="#363636"/>
</linearGradient>
<linearGradient id="paint8_linear_2329_122653" x1="20.178" y1="16.5859" x2="20.178" y2="18.6515" gradientUnits="userSpaceOnUse">
<stop stop-color="#363636"/>
<stop offset="1" stop-color="#363636"/>
</linearGradient>
<linearGradient id="paint9_linear_2329_122653" x1="18.0217" y1="19.667" x2="18.0217" y2="22.1593" gradientUnits="userSpaceOnUse">
<stop stop-color="#363636"/>
<stop offset="1" stop-color="#363636"/>
</linearGradient>
<linearGradient id="paint10_linear_2329_122653" x1="16.2782" y1="23.5435" x2="16.2782" y2="25.891" gradientUnits="userSpaceOnUse">
<stop stop-color="#363636"/>
<stop offset="1" stop-color="#363636"/>
</linearGradient>
<linearGradient id="paint11_linear_2329_122653" x1="14.0437" y1="28.082" x2="14.0437" y2="30.6316" gradientUnits="userSpaceOnUse">
<stop stop-color="#363636"/>
<stop offset="1" stop-color="#363636"/>
</linearGradient>
<linearGradient id="paint12_linear_2329_122653" x1="13.182" y1="32.6689" x2="13.182" y2="35.5413" gradientUnits="userSpaceOnUse">
<stop stop-color="#363636"/>
<stop offset="1" stop-color="#363636"/>
</linearGradient>
<linearGradient id="paint13_linear_2329_122653" x1="12.7473" y1="37.8096" x2="12.7473" y2="40.8714" gradientUnits="userSpaceOnUse">
<stop stop-color="#363636"/>
<stop offset="1" stop-color="#363636"/>
</linearGradient>
<linearGradient id="paint14_linear_2329_122653" x1="13.4058" y1="42.6846" x2="13.4058" y2="45.3453" gradientUnits="userSpaceOnUse">
<stop stop-color="#363636"/>
<stop offset="1" stop-color="#363636"/>
</linearGradient>
<linearGradient id="paint15_linear_2329_122653" x1="31.9377" y1="4.35693" x2="31.9377" y2="6.59625" gradientUnits="userSpaceOnUse">
<stop stop-color="#363636"/>
<stop offset="1" stop-color="#363636"/>
</linearGradient>
<linearGradient id="paint16_linear_2329_122653" x1="27.9035" y1="4.93799" x2="27.9035" y2="8.23256" gradientUnits="userSpaceOnUse">
<stop stop-color="#363636"/>
<stop offset="1" stop-color="#363636"/>
</linearGradient>
<linearGradient id="paint17_linear_2329_122653" x1="24.0796" y1="6.68262" x2="24.0796" y2="10.7524" gradientUnits="userSpaceOnUse">
<stop stop-color="#363636"/>
<stop offset="1" stop-color="#363636"/>
</linearGradient>
<linearGradient id="paint18_linear_2329_122653" x1="21.2044" y1="8.81396" x2="21.2044" y2="13.5411" gradientUnits="userSpaceOnUse">
<stop stop-color="#363636"/>
<stop offset="1" stop-color="#363636"/>
</linearGradient>
<linearGradient id="paint19_linear_2329_122653" x1="18.4046" y1="11.7212" x2="18.4046" y2="16.7599" gradientUnits="userSpaceOnUse">
<stop stop-color="#363636"/>
<stop offset="1" stop-color="#363636"/>
</linearGradient>
<linearGradient id="paint20_linear_2329_122653" x1="15.9293" y1="14.8223" x2="15.9293" y2="20.2956" gradientUnits="userSpaceOnUse">
<stop stop-color="#363636"/>
<stop offset="1" stop-color="#363636"/>
</linearGradient>
<linearGradient id="paint21_linear_2329_122653" x1="13.6792" y1="18.4775" x2="13.6792" y2="23.7068" gradientUnits="userSpaceOnUse">
<stop stop-color="#363636"/>
<stop offset="1" stop-color="#363636"/>
</linearGradient>
<linearGradient id="paint22_linear_2329_122653" x1="11.7486" y1="22.1226" x2="11.7486" y2="27.8704" gradientUnits="userSpaceOnUse">
<stop stop-color="#363636"/>
<stop offset="1" stop-color="#363636"/>
</linearGradient>
<linearGradient id="paint23_linear_2329_122653" x1="10.1233" y1="27.8062" x2="10.1233" y2="33.8139" gradientUnits="userSpaceOnUse">
<stop stop-color="#363636"/>
<stop offset="1" stop-color="#363636"/>
</linearGradient>
<linearGradient id="paint24_linear_2329_122653" x1="9.30171" y1="33.853" x2="9.30171" y2="38.4653" gradientUnits="userSpaceOnUse">
<stop stop-color="#363636"/>
<stop offset="1" stop-color="#363636"/>
</linearGradient>
<linearGradient id="paint25_linear_2329_122653" x1="10.2831" y1="39.2407" x2="10.2831" y2="43.8746" gradientUnits="userSpaceOnUse">
<stop stop-color="#363636"/>
<stop offset="1" stop-color="#363636"/>
</linearGradient>
<linearGradient id="paint26_linear_2329_122653" x1="33.7947" y1="13.6611" x2="33.7947" y2="50.3916" gradientUnits="userSpaceOnUse">
<stop stop-color="white"/>
<stop offset="1" stop-color="#DBDBE1"/>
</linearGradient>
</defs>
</svg>
