<svg width="24" height="24" viewBox="0 0 24 24" fill="none" xmlns="http://www.w3.org/2000/svg">
<g clip-path="url(#clip0_1082_175698)">
<path d="M20.8479 13.7329L20.999 12.2906C21.006 12.2223 20.9858 12.1541 20.9428 12.1008C20.8998 12.0476 20.8375 12.0136 20.7696 12.0065C20.7073 11.9994 20.6497 11.9699 20.6073 11.9236C20.565 11.8772 20.5407 11.817 20.539 11.7541C20.5288 11.3649 20.4925 10.9768 20.4302 10.5925C20.4193 10.5313 20.4308 10.4681 20.4626 10.4147C20.4944 10.3613 20.5443 10.3212 20.6032 10.3019H20.6195C20.6518 10.2914 20.6817 10.2745 20.7075 10.2523C20.7333 10.2301 20.7545 10.2029 20.7698 10.1724C20.785 10.142 20.7941 10.1087 20.7965 10.0746C20.7989 10.0406 20.7946 10.0064 20.7837 9.97406L20.3378 8.59508C20.3273 8.56258 20.3106 8.53248 20.2885 8.50652C20.2664 8.48056 20.2394 8.45924 20.2091 8.44381C20.1787 8.42837 20.1457 8.41911 20.1118 8.41657C20.0779 8.41402 20.0438 8.41825 20.0115 8.42899C19.952 8.44807 19.8876 8.44486 19.8302 8.41996C19.7729 8.39505 19.7264 8.35013 19.6994 8.29349C19.5312 7.94278 19.3393 7.60398 19.1252 7.27947C19.0902 7.22778 19.075 7.16513 19.0824 7.10308C19.0898 7.04102 19.1193 6.98375 19.1654 6.94183L19.1785 6.92981C19.2289 6.88398 19.2592 6.81993 19.2626 6.75171C19.2661 6.68349 19.2425 6.61668 19.197 6.56593L18.2312 5.48744C18.2086 5.46219 18.1813 5.44168 18.1508 5.42708C18.1203 5.41248 18.0872 5.40408 18.0534 5.40235C18.0197 5.40063 17.9859 5.40561 17.9541 5.41702C17.9223 5.42844 17.893 5.44606 17.868 5.46887C17.8209 5.51044 17.7604 5.53336 17.6978 5.53336C17.6351 5.53336 17.5746 5.51044 17.5276 5.46887C17.2316 5.21719 16.9191 4.98574 16.5923 4.77609C16.5391 4.74277 16.4997 4.69117 16.4815 4.63087C16.4633 4.57058 16.4675 4.5057 16.4933 4.44828L16.4998 4.43298C16.5274 4.37036 16.5291 4.29936 16.5046 4.23548C16.4802 4.17159 16.4315 4.12003 16.3693 4.09206L15.0512 3.50202C15.0204 3.48819 14.9871 3.48061 14.9534 3.47971C14.9196 3.47882 14.886 3.48463 14.8545 3.49681C14.823 3.50899 14.7941 3.52729 14.7697 3.55069C14.7452 3.57408 14.7256 3.6021 14.7119 3.63313C14.6859 3.69034 14.6403 3.7362 14.5833 3.76229C14.5264 3.78839 14.462 3.79297 14.402 3.77519C14.0295 3.66708 13.6501 3.58421 13.2666 3.52715C13.2059 3.51773 13.1505 3.48675 13.1106 3.43983C13.0707 3.39291 13.0489 3.33316 13.0491 3.27144V3.25397C13.0491 3.22001 13.0424 3.18638 13.0294 3.15503C13.0165 3.12367 12.9975 3.09519 12.9735 3.07123C12.9496 3.04727 12.9211 3.02831 12.8899 3.01541C12.8586 3.00252 12.8251 2.99595 12.7913 2.9961H11.3384C11.3046 2.99595 11.2712 3.00252 11.24 3.01542C11.2088 3.02833 11.1804 3.04732 11.1565 3.0713C11.1327 3.09527 11.1138 3.12375 11.1009 3.15511C11.0881 3.18646 11.0815 3.22007 11.0817 3.25397C11.0811 3.31687 11.0579 3.37744 11.0163 3.42445C10.9747 3.47146 10.9176 3.50173 10.8555 3.50966C10.4713 3.5614 10.0912 3.6399 9.7179 3.74459C9.65819 3.76165 9.59437 3.75657 9.53808 3.73029C9.48178 3.70402 9.43675 3.65829 9.41121 3.60144L9.40469 3.58724C9.39092 3.5563 9.37122 3.5284 9.34671 3.50512C9.3222 3.48184 9.29337 3.46365 9.26185 3.45157C9.23034 3.43949 9.19677 3.43377 9.16306 3.43474C9.12934 3.4357 9.09615 3.44335 9.06537 3.45721L7.74618 4.04727C7.71539 4.0611 7.68762 4.0809 7.66445 4.10552C7.64128 4.13015 7.62317 4.15912 7.61115 4.19078C7.59913 4.22244 7.59344 4.25617 7.5944 4.29005C7.59536 4.32392 7.60296 4.35727 7.61676 4.38819C7.64254 4.44594 7.64636 4.51117 7.62753 4.57157C7.60869 4.63197 7.5685 4.68335 7.51453 4.716C7.18544 4.92109 6.87043 5.14815 6.57163 5.39566C6.5249 5.43655 6.46503 5.45907 6.40306 5.45907C6.34109 5.45907 6.28122 5.43655 6.23449 5.39566L6.22035 5.38254C6.16952 5.33689 6.10277 5.31333 6.03469 5.31701C5.96661 5.3207 5.90276 5.35133 5.85711 5.40221L4.89136 6.47962C4.84592 6.53068 4.82247 6.59776 4.82614 6.66616C4.82981 6.73456 4.8603 6.79871 4.91094 6.84457C4.95751 6.88677 4.98709 6.94463 4.9941 7.00724C5.00112 7.06985 4.98508 7.13286 4.94901 7.1844C4.73072 7.50569 4.53451 7.84156 4.36173 8.18968C4.33458 8.24584 4.28816 8.29026 4.23101 8.31475C4.17386 8.33925 4.10982 8.34218 4.05069 8.323H4.03547C4.00321 8.31195 3.96908 8.3075 3.93508 8.3099C3.90109 8.3123 3.86791 8.32151 3.83751 8.33699C3.80711 8.35247 3.7801 8.3739 3.75807 8.40001C3.73603 8.42613 3.71942 8.45641 3.7092 8.48908L3.26331 9.86807C3.25245 9.90042 3.24808 9.93461 3.25047 9.96866C3.25287 10.0027 3.26197 10.036 3.27724 10.0664C3.29252 10.0969 3.31367 10.1241 3.33947 10.1463C3.36526 10.1685 3.3952 10.1854 3.42753 10.1959C3.48693 10.2155 3.53722 10.2561 3.56903 10.3102C3.60084 10.3642 3.61201 10.4281 3.60045 10.4898C3.53273 10.8733 3.49094 11.261 3.47538 11.6503C3.47317 11.7125 3.44879 11.7719 3.40668 11.8176C3.36456 11.8634 3.30752 11.8924 3.24591 11.8994H3.22633C3.15872 11.9066 3.0967 11.9404 3.05388 11.9934C3.01106 12.0465 2.99095 12.1145 2.99795 12.1824L3.14911 13.6248C3.15624 13.693 3.19002 13.7556 3.24304 13.7988C3.29605 13.842 3.36396 13.8624 3.43188 13.8553C3.49427 13.8489 3.55686 13.8655 3.60791 13.9021C3.65896 13.9388 3.69497 13.9928 3.7092 14.0542C3.80079 14.4326 3.91816 14.8043 4.06048 15.1666C4.08387 15.2243 4.08574 15.2886 4.06577 15.3476C4.04579 15.4066 4.0053 15.4564 3.95173 15.4878L3.93976 15.4955C3.88073 15.5298 3.83764 15.5862 3.8199 15.6523C3.80217 15.7185 3.81125 15.789 3.84514 15.8484L4.56728 17.1039C4.60141 17.1632 4.65754 17.2065 4.72337 17.2243C4.78921 17.2422 4.85939 17.233 4.91855 17.199C4.97294 17.1678 5.03675 17.1574 5.09815 17.1699C5.15954 17.1824 5.21436 17.2168 5.25243 17.2667C5.48957 17.5756 5.74756 17.8676 6.02459 18.1409C6.0691 18.1844 6.09664 18.2425 6.10222 18.3046C6.10781 18.3667 6.09107 18.4288 6.05504 18.4796L6.04417 18.4949C6.02428 18.5223 6.00997 18.5534 6.00205 18.5863C5.99413 18.6193 5.99276 18.6535 5.99801 18.687C6.00327 18.7205 6.01504 18.7526 6.03267 18.7815C6.05029 18.8104 6.07342 18.8356 6.10072 18.8555L7.26875 19.7078C7.32391 19.7479 7.39261 19.7644 7.45985 19.7537C7.52709 19.7431 7.5874 19.7062 7.62764 19.651C7.6649 19.6004 7.71916 19.5651 7.78035 19.5516C7.84155 19.5382 7.90553 19.5475 7.96043 19.5778C8.30137 19.7623 8.65457 19.9229 9.01752 20.0586C9.07597 20.0799 9.12479 20.1217 9.15496 20.1763C9.18514 20.2309 9.19465 20.2947 9.18174 20.3558V20.3722C9.16787 20.4391 9.18089 20.5088 9.21796 20.5661C9.25504 20.6234 9.31317 20.6637 9.37968 20.6781L10.7935 20.9797C10.8265 20.9868 10.8605 20.9872 10.8937 20.981C10.9269 20.9749 10.9585 20.9622 10.9868 20.9437C11.0151 20.9252 11.0394 20.9013 11.0585 20.8734C11.0776 20.8454 11.091 20.814 11.098 20.7808C11.1107 20.7202 11.1448 20.6663 11.1939 20.629C11.2431 20.5916 11.304 20.5734 11.3655 20.5776C11.5765 20.5929 11.7908 20.6016 12.0061 20.6016C12.1845 20.6016 12.3617 20.5951 12.5368 20.5831C12.5983 20.5791 12.6591 20.5977 12.708 20.6352C12.757 20.6728 12.7908 20.7268 12.8033 20.7874V20.8049C12.8103 20.838 12.8237 20.8695 12.8428 20.8974C12.8618 20.9254 12.8862 20.9493 12.9145 20.9677C12.9428 20.9862 12.9744 20.9989 13.0076 21.0051C13.0407 21.0112 13.0748 21.0108 13.1078 21.0037L14.5216 20.7022C14.5546 20.6951 14.5859 20.6817 14.6137 20.6625C14.6415 20.6433 14.6653 20.6188 14.6837 20.5904C14.7021 20.562 14.7147 20.5302 14.7208 20.4969C14.727 20.4636 14.7266 20.4294 14.7195 20.3962C14.7068 20.3345 14.7167 20.2703 14.7475 20.2154C14.7783 20.1606 14.8279 20.1188 14.887 20.0979C15.2518 19.9667 15.6072 19.8105 15.9506 19.6302C16.0051 19.6022 16.0678 19.5943 16.1275 19.6081C16.1872 19.6219 16.2401 19.6564 16.2769 19.7056L16.2856 19.7187C16.3257 19.7741 16.3859 19.8112 16.4532 19.8221C16.5204 19.8329 16.5892 19.8166 16.6445 19.7766L17.8125 18.9233C17.8399 18.9034 17.8631 18.8783 17.8809 18.8495C17.8986 18.8206 17.9105 18.7885 17.9158 18.755C17.9212 18.7215 17.9199 18.6872 17.9121 18.6542C17.9042 18.6212 17.89 18.5901 17.8702 18.5627C17.8336 18.5115 17.8167 18.4487 17.8227 18.386C17.8287 18.3233 17.8572 18.265 17.9028 18.2217C18.1828 17.9524 18.4444 17.6644 18.6858 17.3596C18.7236 17.3115 18.7772 17.2785 18.8369 17.2665C18.8967 17.2545 18.9588 17.2643 19.0121 17.294L19.0273 17.3017C19.0564 17.3187 19.0886 17.3298 19.122 17.3343C19.1554 17.3388 19.1893 17.3366 19.2219 17.3279C19.2544 17.3191 19.2849 17.304 19.3116 17.2834C19.3383 17.2628 19.3607 17.2371 19.3775 17.2077L20.0996 15.9511C20.1336 15.8918 20.1429 15.8214 20.1253 15.7553C20.1078 15.6891 20.065 15.6326 20.0061 15.5982C19.9512 15.5664 19.9098 15.5155 19.8897 15.455C19.8697 15.3946 19.8724 15.3289 19.8974 15.2704C20.044 14.9102 20.1657 14.5404 20.2617 14.1635C20.2766 14.1027 20.3129 14.0494 20.3639 14.0134C20.4148 13.9775 20.4771 13.9613 20.539 13.9679H20.5673C20.6011 13.9712 20.6352 13.9677 20.6677 13.9576C20.7002 13.9476 20.7303 13.9312 20.7564 13.9093C20.7825 13.8875 20.8041 13.8606 20.8198 13.8303C20.8354 13.8001 20.845 13.767 20.8479 13.7329Z" fill="#505250"/>
<path d="M11.9992 17.9015C15.2294 17.9015 17.848 15.2705 17.848 12.025C17.848 8.77945 15.2294 6.14844 11.9992 6.14844C8.769 6.14844 6.15039 8.77945 6.15039 12.025C6.15039 15.2705 8.769 17.9015 11.9992 17.9015Z" fill="#3C3C3C"/>
<path d="M11.9997 17.1364C14.8094 17.1364 17.0872 14.8478 17.0872 12.0247C17.0872 9.20164 14.8094 6.91309 11.9997 6.91309C9.18988 6.91309 6.91211 9.20164 6.91211 12.0247C6.91211 14.8478 9.18988 17.1364 11.9997 17.1364Z" fill="#C5C5C5"/>
<path d="M11.3874 14.2541L10.7229 15.4124C10.6613 15.5198 10.6289 15.6416 10.6289 15.7656C10.629 15.8896 10.6615 16.0114 10.7232 16.1188C10.7849 16.2262 10.8736 16.3154 10.9804 16.3774C11.0873 16.4394 11.2085 16.4722 11.3319 16.4723H12.662C12.7855 16.4724 12.9068 16.4398 13.0138 16.3778C13.1208 16.3158 13.2097 16.2267 13.2715 16.1193C13.3333 16.0118 13.3659 15.89 13.366 15.7659C13.3661 15.6418 13.3337 15.5199 13.2721 15.4124L12.6065 14.2541C12.5445 14.1468 12.4556 14.0578 12.3486 13.9959C12.2417 13.934 12.1204 13.9014 11.9969 13.9014C11.8735 13.9014 11.7522 13.934 11.6452 13.9959C11.5382 14.0578 11.4493 14.1468 11.3874 14.2541Z" fill="#E5E6EB"/>
<path d="M13.6154 13.6712L14.281 14.8295C14.3428 14.9368 14.4316 15.0259 14.5385 15.0878C14.6454 15.1498 14.7666 15.1824 14.89 15.1824C15.0134 15.1824 15.1347 15.1498 15.2416 15.0878C15.3485 15.0259 15.4373 14.9368 15.4991 14.8295L16.1647 13.6712C16.2263 13.5638 16.2587 13.442 16.2586 13.318C16.2586 13.194 16.2261 13.0722 16.1644 12.9648C16.1027 12.8574 16.0139 12.7683 15.9071 12.7062C15.8002 12.6442 15.679 12.6114 15.5556 12.6113H14.2256C14.1021 12.6113 13.9807 12.6438 13.8737 12.7058C13.7667 12.7678 13.6779 12.8569 13.616 12.9643C13.5542 13.0718 13.5216 13.1936 13.5215 13.3177C13.5214 13.4418 13.5538 13.5637 13.6154 13.6712Z" fill="#E5E6EB"/>
<path d="M14.2278 11.4451H15.5644C15.6878 11.445 15.809 11.4122 15.9159 11.3502C16.0227 11.2882 16.1114 11.199 16.1731 11.0916C16.2348 10.9842 16.2674 10.8624 16.2674 10.7384C16.2675 10.6144 16.2351 10.4926 16.1735 10.3852L15.5079 9.228C15.4463 9.12041 15.3576 9.03105 15.2506 8.9689C15.1437 8.90675 15.0224 8.87402 14.8988 8.87402C14.7753 8.87402 14.654 8.90675 14.5471 8.9689C14.4401 9.03105 14.3514 9.12041 14.2898 9.228L13.6242 10.3852C13.5629 10.4922 13.5305 10.6135 13.5303 10.7371C13.5301 10.8606 13.5621 10.982 13.6232 11.0892C13.6842 11.1965 13.7722 11.2857 13.8783 11.3482C13.9844 11.4106 14.1049 11.444 14.2278 11.4451Z" fill="#E5E6EB"/>
<path d="M12.6119 9.79326L13.2774 8.6361C13.3391 8.52866 13.3715 8.40683 13.3714 8.28284C13.3713 8.15885 13.3388 8.03705 13.2771 7.92967C13.2154 7.82229 13.1267 7.73311 13.0199 7.67106C12.913 7.60902 12.7918 7.57629 12.6684 7.57617H11.3373C11.2139 7.57629 11.0926 7.60902 10.9858 7.67106C10.879 7.73311 10.7902 7.82229 10.7285 7.92967C10.6668 8.03705 10.6343 8.15885 10.6343 8.28284C10.6342 8.40683 10.6666 8.52866 10.7282 8.6361L11.3938 9.79326C11.4554 9.90085 11.5441 9.99023 11.651 10.0524C11.758 10.1145 11.8793 10.1472 12.0028 10.1472C12.1264 10.1472 12.2477 10.1145 12.3546 10.0524C12.4616 9.99023 12.5503 9.90085 12.6119 9.79326Z" fill="#E5E6EB"/>
<path d="M10.3834 10.3761L9.71893 9.21895C9.65698 9.11166 9.56806 9.02261 9.46108 8.9607C9.3541 8.8988 9.23282 8.86621 9.10936 8.86621C8.98591 8.86621 8.86462 8.8988 8.75764 8.9607C8.65066 9.02261 8.56174 9.11166 8.49979 9.21895L7.83531 10.3761C7.77343 10.4836 7.74081 10.6055 7.74072 10.7297C7.74064 10.8538 7.7731 10.9758 7.83483 11.0834C7.89656 11.1909 7.98539 11.2802 8.09238 11.3423C8.19938 11.4044 8.32077 11.4371 8.44433 11.4371H9.7744C9.89796 11.4371 10.0193 11.4044 10.1263 11.3423C10.2333 11.2802 10.3222 11.1909 10.3839 11.0834C10.4456 10.9758 10.4781 10.8538 10.478 10.7297C10.4779 10.6055 10.4453 10.4836 10.3834 10.3761Z" fill="#E5E6EB"/>
<path d="M9.77085 12.6055H8.44078C8.31737 12.6056 8.19616 12.6383 8.08932 12.7004C7.98248 12.7624 7.89375 12.8516 7.83205 12.959C7.77035 13.0663 7.73785 13.1881 7.73779 13.3121C7.73774 13.4361 7.77014 13.5579 7.83175 13.6654L8.49733 14.8236C8.55914 14.931 8.64794 15.02 8.75483 15.082C8.86173 15.1439 8.98296 15.1765 9.10636 15.1765C9.22975 15.1765 9.35098 15.1439 9.45788 15.082C9.56477 15.02 9.65358 14.931 9.71538 14.8236L10.381 13.6654C10.4426 13.5579 10.475 13.4359 10.4749 13.3119C10.4748 13.1878 10.4422 13.0659 10.3804 12.9585C10.3186 12.8511 10.2297 12.7619 10.1227 12.6999C10.0157 12.638 9.89435 12.6054 9.77085 12.6055Z" fill="#E5E6EB"/>
<path d="M11.9995 13.6875C12.9137 13.6875 13.6547 12.9429 13.6547 12.0244C13.6547 11.1059 12.9137 10.3613 11.9995 10.3613C11.0853 10.3613 10.3442 11.1059 10.3442 12.0244C10.3442 12.9429 11.0853 13.6875 11.9995 13.6875Z" fill="#A5A5A5"/>
<path d="M11.9992 12.9308C12.4972 12.9308 12.9008 12.5253 12.9008 12.025C12.9008 11.5247 12.4972 11.1191 11.9992 11.1191C11.5013 11.1191 11.0977 11.5247 11.0977 12.025C11.0977 12.5253 11.5013 12.9308 11.9992 12.9308Z" fill="#515151"/>
</g>
<defs>
<clipPath id="clip0_1082_175698">
<rect width="18" height="18" fill="white" transform="translate(3 3)"/>
</clipPath>
</defs>
</svg>
