<svg width="56" height="56" viewBox="0 0 56 56" fill="none" xmlns="http://www.w3.org/2000/svg">
<path d="M33.0476 3.08105L50.3135 12.9372L22.2659 28.9552L5 19.0991L33.0476 3.08105Z" fill="url(#paint0_linear_2329_122896)"/>
<path d="M5.50715 44.4983L22.3823 54.1376V28.9142L5.50715 19.2749V44.4983Z" fill="url(#paint1_linear_2329_122896)"/>
<g filter="url(#filter0_i_2329_122896)">
<path d="M22.3823 54.138L49.8062 38.4793V13.2559L22.3823 28.9146V54.138Z" fill="url(#paint2_linear_2329_122896)"/>
</g>
<path d="M25.0351 49.7658V50.7013L47.1606 38.0726V19.9058L46.2902 20.4074V37.6252L25.0351 49.7658Z" fill="url(#paint3_linear_2329_122896)"/>
<g filter="url(#filter1_i_2329_122896)">
<path d="M25.0351 32.541V50.0232L46.6055 37.6996V20.231L25.0351 32.541Z" fill="url(#paint4_linear_2329_122896)"/>
</g>
<path d="M31.211 2.32847C31.355 2.24713 31.4852 2.24713 31.5743 2.30814L32.8218 3.0199L31.7114 3.69776L31.5743 8.62585L30.3405 7.92087V2.82331L31.211 2.32847Z" fill="url(#paint5_linear_2329_122896)"/>
<path d="M31.5745 3.5281L32.445 3.03325C32.7191 2.87734 32.9385 3.00614 32.9385 3.31118V7.85289L31.5813 8.63243V3.5281H31.5745Z" fill="url(#paint6_linear_2329_122896)"/>
<path d="M13.6847 11.1138L14.9185 11.8188V13.8795L13.6847 13.1745V11.1138Z" fill="#5E5E5E"/>
<path d="M13.6841 11.1136L30.34 1.79297L31.5737 2.49795L14.9179 11.8186L13.6841 11.1136Z" fill="url(#paint7_linear_2329_122896)"/>
<path d="M14.9179 11.8187L31.5737 2.49805V4.56554L14.9179 13.8794V11.8187Z" fill="url(#paint8_linear_2329_122896)"/>
<path d="M12.8142 12.6389L13.6847 12.144L14.9185 12.849L13.5613 18.7261L12.3275 18.0211V13.4794C12.3275 13.1676 12.5469 12.7948 12.8211 12.6389H12.8142Z" fill="url(#paint9_linear_2329_122896)"/>
<path d="M14.048 13.344L14.9185 12.8491V17.9467L13.5613 18.7262V14.1845C13.5613 13.8727 13.7806 13.4999 14.0548 13.344H14.048Z" fill="#D9DEE2"/>
<path d="M41.7861 11.8662V12.2119C41.7861 12.4627 41.6216 12.7068 41.2858 12.8966C40.6209 13.2762 39.5448 13.2762 38.8799 12.8966C38.5441 12.7068 38.3796 12.456 38.3796 12.2119V11.8662H41.7861Z" fill="#7A7A7A"/>
<path d="M38.8812 12.5509C39.546 12.9305 40.6221 12.9305 41.287 12.5509C41.9519 12.1713 41.9519 11.5544 41.287 11.1748C40.6221 10.7952 39.546 10.7952 38.8812 11.1748C38.2163 11.5544 38.2163 12.1713 38.8812 12.5509Z" fill="#8C8C8C"/>
<path d="M41.2866 9.87988V11.7237C41.2866 11.8999 41.1701 12.0762 40.937 12.2117C40.4641 12.4829 39.7033 12.4829 39.2372 12.2117C39.0041 12.0762 38.8876 11.8999 38.8876 11.7237V9.87988H41.2935H41.2866Z" fill="url(#paint10_linear_2329_122896)"/>
<path d="M39.2374 10.368C39.7104 10.6392 40.4712 10.6392 40.9373 10.368C41.4102 10.0969 41.4102 9.66304 40.9373 9.39867C40.4643 9.12753 39.7035 9.12753 39.2374 9.39867C38.7713 9.66982 38.7645 10.1037 39.2374 10.368Z" fill="#FF3B30"/>
<path d="M5.00024 20.959L22.2661 30.8152V28.8562L5.00024 19V20.959Z" fill="url(#paint11_linear_2329_122896)"/>
<path d="M22.2659 30.914L50.3135 14.896V12.937L22.2659 28.955V30.914Z" fill="url(#paint12_linear_2329_122896)"/>
<path d="M30.1617 9.43262L35.6108 12.6186L22.9099 19.8718L17.4608 16.6858L30.1617 9.43262Z" fill="url(#paint13_linear_2329_122896)"/>
<path d="M17.4605 17.5736L22.9097 20.7527V19.8715L17.4605 16.6855V17.5736Z" fill="url(#paint14_linear_2329_122896)"/>
<path d="M22.9099 20.7531L35.6108 13.5067V12.6187L22.9099 19.865V20.7531Z" fill="url(#paint15_linear_2329_122896)"/>
<path d="M23.0547 23.1323V23.478C23.0547 23.7288 22.8902 23.9729 22.5543 24.1627C21.8895 24.5423 20.8133 24.5423 20.1485 24.1627C19.8126 23.9729 19.6481 23.7221 19.6481 23.478V23.1323H23.0547Z" fill="#7A7A7A"/>
<path d="M20.1482 23.817C20.8131 24.1966 21.8892 24.1966 22.5541 23.817C23.219 23.4374 23.219 22.8206 22.5541 22.441C21.8892 22.0613 20.8131 22.0613 20.1482 22.441C19.4834 22.8206 19.4834 23.4374 20.1482 23.817Z" fill="url(#paint16_linear_2329_122896)"/>
<path d="M22.56 21.146V22.9898C22.56 23.166 22.4435 23.3423 22.2105 23.4779C21.7375 23.749 20.9767 23.749 20.5106 23.4779C20.2776 23.3423 20.161 23.166 20.161 22.9898V21.146H22.5669H22.56Z" fill="#0086D7"/>
<path d="M20.504 21.6341C20.977 21.9053 21.7378 21.9053 22.2039 21.6341C22.6768 21.363 22.6768 20.9292 22.2039 20.6648C21.7309 20.3936 20.9701 20.3936 20.504 20.6648C20.0379 20.9359 20.0311 21.3698 20.504 21.6341Z" fill="#4C9ED6"/>
<path d="M33.8431 12.7946C34.0145 12.8759 34.2886 12.8556 34.4531 12.7539C34.6245 12.6522 34.6176 12.5031 34.4531 12.4218C34.2818 12.3404 34.0076 12.3608 33.8431 12.4624C33.6786 12.5641 33.6786 12.7133 33.8431 12.7946Z" fill="#AFB5C4"/>
<path d="M29.8465 10.3884C30.0179 10.4697 30.2921 10.4494 30.4566 10.3477C30.6279 10.246 30.6211 10.0969 30.4566 10.0155C30.2852 9.93418 30.011 9.95452 29.8465 10.0562C29.682 10.1579 29.682 10.307 29.8465 10.3884Z" fill="#AFB5C4"/>
<path d="M22.6156 19.2277C22.7869 19.3091 23.0611 19.2887 23.2256 19.187C23.397 19.0854 23.3901 18.9362 23.2256 18.8549C23.0542 18.7735 22.7801 18.7939 22.6156 18.8956C22.4511 18.9972 22.4511 19.1464 22.6156 19.2277Z" fill="#AFB5C4"/>
<path d="M18.6195 16.8146C18.7908 16.896 19.065 16.8756 19.2295 16.7739C19.4009 16.6723 19.394 16.5231 19.2295 16.4418C19.0582 16.3605 18.784 16.3808 18.6195 16.4825C18.455 16.5841 18.455 16.7333 18.6195 16.8146Z" fill="#AFB5C4"/>
<g filter="url(#filter2_i_2329_122896)">
<path d="M35.3156 30.0193C35.2607 30.0485 35.2293 30.0704 35.198 30.0995C35.0567 30.2308 34.9783 30.4349 35.0018 30.5954L35.6216 34.3287L33.3228 35.561C33.1894 35.6339 33.0874 35.7578 33.0325 35.9037C32.9776 36.0568 32.9933 36.2026 33.0717 36.2828L36.6494 39.9433C36.7122 40.0089 36.8064 40.0162 36.9005 39.9724C36.9633 39.9433 36.9947 39.9141 37.0339 39.8776C37.1673 39.7464 37.2379 39.5422 37.2143 39.3891L36.6024 36.0714L38.6815 34.9558C38.8149 34.8828 38.909 34.7662 38.964 34.6276C39.0189 34.4818 39.011 34.336 38.9404 34.2485L35.5746 30.0704C35.5118 29.9901 35.4176 29.9829 35.3156 30.0266V30.0193Z" fill="url(#paint17_linear_2329_122896)"/>
</g>
<path d="M22.8623 25.0576L23.0747 24.9355L23.7807 25.3423L24.4936 24.9355L24.7061 25.0576L23.9932 25.4643L24.6992 25.871L24.4867 25.993L23.7807 25.5863L23.0679 25.993L22.8554 25.871L23.5682 25.4643L22.8623 25.0576Z" fill="#8C8C8C"/>
<path d="M42.1991 14.4544L42.4116 14.5765L44.0635 13.6342L43.851 13.5122L42.1991 14.4544Z" fill="#8C8C8C"/>
<defs>
<filter id="filter0_i_2329_122896" x="22.3823" y="13.2559" width="28.4238" height="41.8823" filterUnits="userSpaceOnUse" color-interpolation-filters="sRGB">
<feFlood flood-opacity="0" result="BackgroundImageFix"/>
<feBlend mode="normal" in="SourceGraphic" in2="BackgroundImageFix" result="shape"/>
<feColorMatrix in="SourceAlpha" type="matrix" values="0 0 0 0 0 0 0 0 0 0 0 0 0 0 0 0 0 0 127 0" result="hardAlpha"/>
<feOffset dx="1" dy="2"/>
<feGaussianBlur stdDeviation="0.5"/>
<feComposite in2="hardAlpha" operator="arithmetic" k2="-1" k3="1"/>
<feColorMatrix type="matrix" values="0 0 0 0 0.586963 0 0 0 0 0.62597 0 0 0 0 0.671761 0 0 0 0.25 0"/>
<feBlend mode="normal" in2="shape" result="effect1_innerShadow_2329_122896"/>
</filter>
<filter id="filter1_i_2329_122896" x="25.0352" y="20.231" width="21.5703" height="30.7925" filterUnits="userSpaceOnUse" color-interpolation-filters="sRGB">
<feFlood flood-opacity="0" result="BackgroundImageFix"/>
<feBlend mode="normal" in="SourceGraphic" in2="BackgroundImageFix" result="shape"/>
<feColorMatrix in="SourceAlpha" type="matrix" values="0 0 0 0 0 0 0 0 0 0 0 0 0 0 0 0 0 0 127 0" result="hardAlpha"/>
<feOffset dy="1"/>
<feGaussianBlur stdDeviation="0.5"/>
<feComposite in2="hardAlpha" operator="arithmetic" k2="-1" k3="1"/>
<feColorMatrix type="matrix" values="0 0 0 0 0.350009 0 0 0 0 0.422725 0 0 0 0 0.475381 0 0 0 0.14 0"/>
<feBlend mode="normal" in2="shape" result="effect1_innerShadow_2329_122896"/>
</filter>
<filter id="filter2_i_2329_122896" x="33" y="30" width="6" height="11" filterUnits="userSpaceOnUse" color-interpolation-filters="sRGB">
<feFlood flood-opacity="0" result="BackgroundImageFix"/>
<feBlend mode="normal" in="SourceGraphic" in2="BackgroundImageFix" result="shape"/>
<feColorMatrix in="SourceAlpha" type="matrix" values="0 0 0 0 0 0 0 0 0 0 0 0 0 0 0 0 0 0 127 0" result="hardAlpha"/>
<feOffset dy="1"/>
<feGaussianBlur stdDeviation="0.5"/>
<feComposite in2="hardAlpha" operator="arithmetic" k2="-1" k3="1"/>
<feColorMatrix type="matrix" values="0 0 0 0 1 0 0 0 0 1 0 0 0 0 1 0 0 0 0.25 0"/>
<feBlend mode="normal" in2="shape" result="effect1_innerShadow_2329_122896"/>
</filter>
<linearGradient id="paint0_linear_2329_122896" x1="27.6567" y1="3.08105" x2="27.6567" y2="28.9552" gradientUnits="userSpaceOnUse">
<stop stop-color="#CAD4DD"/>
<stop offset="1" stop-color="#EDEDED"/>
</linearGradient>
<linearGradient id="paint1_linear_2329_122896" x1="13.9447" y1="19.2749" x2="13.9447" y2="54.1376" gradientUnits="userSpaceOnUse">
<stop stop-color="#E6E6E6"/>
<stop offset="0.630322" stop-color="#B4C1C9"/>
<stop offset="1" stop-color="#919EA6"/>
</linearGradient>
<linearGradient id="paint2_linear_2329_122896" x1="36.0942" y1="13.2559" x2="36.0942" y2="54.138" gradientUnits="userSpaceOnUse">
<stop stop-color="#EDF0F3"/>
<stop offset="1" stop-color="#C1CBD3"/>
</linearGradient>
<linearGradient id="paint3_linear_2329_122896" x1="22" y1="52.5001" x2="41.5" y2="9.50012" gradientUnits="userSpaceOnUse">
<stop stop-color="#899299"/>
<stop offset="0.788833" stop-color="#CBD4D7"/>
</linearGradient>
<linearGradient id="paint4_linear_2329_122896" x1="38" y1="47.4999" x2="36" y2="23.9999" gradientUnits="userSpaceOnUse">
<stop stop-color="#A9B5BA"/>
<stop offset="1" stop-color="#DEE4E9"/>
</linearGradient>
<linearGradient id="paint5_linear_2329_122896" x1="31.5812" y1="2.26465" x2="31.5812" y2="8.62585" gradientUnits="userSpaceOnUse">
<stop stop-color="#ABB0B5"/>
<stop offset="0.398199" stop-color="#BEC9D0"/>
<stop offset="1" stop-color="#C4CBD0"/>
</linearGradient>
<linearGradient id="paint6_linear_2329_122896" x1="32.2565" y1="2.9668" x2="32.2565" y2="8.63243" gradientUnits="userSpaceOnUse">
<stop stop-color="#F5F5F5"/>
<stop offset="1" stop-color="#D9DEE2"/>
</linearGradient>
<linearGradient id="paint7_linear_2329_122896" x1="22.6289" y1="1.79297" x2="22.6289" y2="11.8186" gradientUnits="userSpaceOnUse">
<stop stop-color="#989898"/>
<stop offset="1" stop-color="#737373"/>
</linearGradient>
<linearGradient id="paint8_linear_2329_122896" x1="23.2458" y1="2.49805" x2="23.2458" y2="13.8794" gradientUnits="userSpaceOnUse">
<stop stop-color="#666666"/>
<stop offset="1" stop-color="#3C3B3B"/>
</linearGradient>
<linearGradient id="paint9_linear_2329_122896" x1="13.5" y1="11.5" x2="13.623" y2="18.7261" gradientUnits="userSpaceOnUse">
<stop stop-color="#B0BBC2"/>
<stop offset="0.320072" stop-color="#DDDFE1"/>
<stop offset="1" stop-color="#B0BBC2"/>
</linearGradient>
<linearGradient id="paint10_linear_2329_122896" x1="37.5" y1="12.4151" x2="40.0905" y2="12.4151" gradientUnits="userSpaceOnUse">
<stop stop-color="#C2150B"/>
<stop offset="1" stop-color="#C2150B"/>
</linearGradient>
<linearGradient id="paint11_linear_2329_122896" x1="21.5" y1="30.401" x2="3" y2="20.401" gradientUnits="userSpaceOnUse">
<stop offset="0.287191" stop-color="#AEB8BF"/>
<stop offset="1" stop-color="#D7DADC"/>
</linearGradient>
<linearGradient id="paint12_linear_2329_122896" x1="48.5" y1="12.9998" x2="22" y2="31.9998" gradientUnits="userSpaceOnUse">
<stop stop-color="#F5F5F5"/>
<stop offset="0.257571" stop-color="#DBDFE4"/>
<stop offset="1" stop-color="#B8C0C8"/>
</linearGradient>
<linearGradient id="paint13_linear_2329_122896" x1="28.5" y1="18.5" x2="20.5" y2="11.5" gradientUnits="userSpaceOnUse">
<stop stop-color="#D0D6DC"/>
<stop offset="1" stop-color="white"/>
</linearGradient>
<linearGradient id="paint14_linear_2329_122896" x1="23" y1="20.3123" x2="15" y2="15.4998" gradientUnits="userSpaceOnUse">
<stop stop-color="#B3BBC2"/>
<stop offset="1" stop-color="#B3BBC2" stop-opacity="0"/>
</linearGradient>
<linearGradient id="paint15_linear_2329_122896" x1="25" y1="20.5001" x2="37" y2="12.5001" gradientUnits="userSpaceOnUse">
<stop stop-color="#B7C0C8"/>
<stop offset="1" stop-color="#BEC7CF"/>
</linearGradient>
<linearGradient id="paint16_linear_2329_122896" x1="21.3512" y1="22.1562" x2="21.3512" y2="24.1017" gradientUnits="userSpaceOnUse">
<stop stop-color="#BDBDBD"/>
<stop offset="1" stop-color="#8F8F8F"/>
</linearGradient>
<linearGradient id="paint17_linear_2329_122896" x1="36" y1="30" x2="36" y2="40" gradientUnits="userSpaceOnUse">
<stop stop-color="#FFDD2C"/>
<stop offset="1" stop-color="#FFD02C"/>
</linearGradient>
</defs>
</svg>
