<svg width="56" height="56" viewBox="0 0 56 56" fill="none" xmlns="http://www.w3.org/2000/svg">
<g clip-path="url(#clip0_2360_97599)">
<path d="M41.3907 44.5023C43.0308 45.4397 43.0394 46.9605 41.41 47.9001C39.7805 48.8375 37.1298 48.8375 35.4896 47.9001C33.8495 46.9626 33.841 45.4419 35.4704 44.5044C37.0998 43.5669 39.7506 43.5669 41.3907 44.5044V44.5023Z" fill="url(#paint0_angular_2360_97599)"/>
<path d="M39.147 41.6307V46.0699C39.1448 46.1696 39.0785 46.2714 38.9457 46.3478C38.6781 46.5026 38.2413 46.5026 37.9715 46.3478C37.8366 46.2693 37.7681 46.1675 37.7681 46.0657V41.6265C37.7681 41.7283 37.8387 41.8301 37.9736 41.9086C38.2434 42.0634 38.6802 42.0634 38.9478 41.9086C39.0806 41.8322 39.147 41.7325 39.147 41.6307Z" fill="url(#paint1_linear_2360_97599)"/>
<path d="M38.9439 41.3505C39.2137 41.5053 39.2158 41.7556 38.9481 41.9104C38.6805 42.0653 38.2437 42.0653 37.9739 41.9104C37.7041 41.7556 37.702 41.5053 37.9718 41.3505C38.2416 41.1957 38.6762 41.1957 38.946 41.3505H38.9439Z" fill="url(#paint2_linear_2360_97599)"/>
<path d="M21.2276 26.1962C21.0863 26.9428 20.9429 27.6915 20.8015 28.4381C20.6602 29.1783 20.0971 29.8973 19.11 30.4658C16.7976 31.7956 13.0377 31.7956 10.7102 30.4658C9.70175 29.8888 9.12792 29.1571 8.99088 28.4042C8.85385 27.6555 8.71467 26.9089 8.57764 26.1602C8.72538 26.9661 9.33989 27.7509 10.4212 28.3681C12.9135 29.7934 16.941 29.7934 19.4184 28.3681C20.4761 27.7594 21.0799 26.9895 21.2298 26.1962H21.2276Z" fill="#086FE8"/>
<path d="M21.2938 11.2455L21.266 25.804C21.2638 26.733 20.6472 27.6598 19.416 28.3661C16.9408 29.7914 12.9133 29.7914 10.4188 28.3661C9.1641 27.6492 8.53888 26.7075 8.54102 25.7679L8.56886 11.2095C8.56672 12.1491 9.19194 13.0908 10.4467 13.8077C12.939 15.233 16.9665 15.233 19.4438 13.8077C20.675 13.0993 21.2895 12.1724 21.2938 11.2455Z" fill="url(#paint3_linear_2360_97599)"/>
<path d="M19.1249 6.5496C21.4523 7.88158 21.4652 10.0386 19.1527 11.3706C16.8403 12.7005 13.0804 12.7005 10.7529 11.3706C8.42549 10.0407 8.41265 7.88158 10.7251 6.55172C13.0376 5.21974 16.7996 5.21974 19.1249 6.55172V6.5496Z" fill="url(#paint4_linear_2360_97599)"/>
<path d="M19.1249 6.5496C21.4523 7.88158 21.4652 10.0386 19.1527 11.3706C16.8403 12.7005 13.0804 12.7005 10.7529 11.3706C8.42549 10.0407 8.41265 7.88158 10.7251 6.55172C13.0376 5.21974 16.7996 5.21974 19.1249 6.55172V6.5496Z" fill="url(#paint5_angular_2360_97599)" fill-opacity="0.2"/>
<path d="M20.844 8.61108C20.919 9.02256 20.9961 9.43403 21.071 9.8455L21.1331 10.1827C21.1738 10.4076 21.2166 10.6324 21.2573 10.8551C21.4521 11.9092 20.8483 13.0015 19.4437 13.8096C16.9685 15.2349 12.941 15.2349 10.4465 13.8096C9.01839 12.993 8.40387 11.8859 8.60728 10.819C8.7486 10.0724 8.89206 9.32374 9.03338 8.57715C8.84495 9.57189 9.41878 10.6069 10.7506 11.3684C13.078 12.7003 16.8401 12.7003 19.1504 11.3684C20.4608 10.6133 21.0239 9.5931 20.844 8.60896V8.61108Z" fill="url(#paint6_linear_2360_97599)"/>
<path d="M16.0309 8.02372C16.6582 8.38216 16.6625 8.96543 16.0373 9.32388C15.4142 9.68233 14.3993 9.68233 13.7698 9.32388C13.1425 8.96543 13.1382 8.38216 13.7634 8.02372C14.3865 7.66527 15.4035 7.66527 16.0309 8.02372Z" fill="url(#paint7_linear_2360_97599)"/>
<path d="M9.21338 26.6775L9.36968 26.5884L11.3738 27.7316L11.0805 27.8991L9.21338 26.8344V26.6775Z" fill="#F8F8FF"/>
<path d="M11.0806 27.8971L11.3739 27.7295V29.3139L11.2304 29.3966L11.0806 29.2863V27.8971Z" fill="#F8F8FF"/>
<path d="M9.21338 26.6777L11.2304 27.8209V29.3968L9.21338 28.2536V26.6777Z" fill="url(#paint8_linear_2360_97599)"/>
<path d="M11.2476 28.9957C11.2476 29.0275 11.2583 29.0487 11.2775 29.0593L11.8963 29.3944L12.0334 29.1526L11.421 28.8196C11.4017 28.8069 11.3782 28.8069 11.3482 28.8239C11.2925 28.8557 11.2476 28.932 11.2476 28.9935V28.9957Z" fill="#EDF1F9"/>
<path d="M3.58838 40.5022L15.1528 48.1314L23.3085 43.5755L10.2046 36.1182L3.59052 40.5001L3.58838 40.5022Z" fill="#201F34"/>
<path d="M4.07035 40.4619L10.2026 36.1181V30.4424L0.400391 38.4173L4.07035 40.4619Z" fill="#201F34"/>
<path d="M10.2132 30.4893L24.4112 37.4482L23.3085 43.5779L10.2046 36.1205L10.2132 30.4893Z" fill="#202135"/>
<path d="M10.2134 29.8931L23.5378 36.7375L23.0775 37.0768L10.2112 30.4891L0.46035 38.4597L0 38.1988L10.2134 29.8931Z" fill="#202135"/>
<path fill-rule="evenodd" clip-rule="evenodd" d="M44.9131 28.2981L50.5272 31.4711L52.5057 30.3533L46.8915 27.1782L44.9131 28.2981Z" fill="#9898A8"/>
<path fill-rule="evenodd" clip-rule="evenodd" d="M23.9019 40.801L28.9636 43.6623L31.0769 42.4681L26.0173 39.6069L23.9019 40.801Z" fill="#9898A8"/>
<path fill-rule="evenodd" clip-rule="evenodd" d="M41.7847 20.3423L55.9999 28.3787V20.8004L41.7847 12.7661V20.3444V20.3423Z" fill="#F1E6F1"/>
<path fill-rule="evenodd" clip-rule="evenodd" d="M41.0205 34.82L45.4035 37.2974V31.6555L41.0205 29.1782V34.82Z" fill="#3E3E4E"/>
<path fill-rule="evenodd" clip-rule="evenodd" d="M41.0205 29.1781L46.0094 31.9991L49.7843 29.8653L44.7954 27.0444L41.0205 29.1803V29.1781Z" fill="#3E3E4E"/>
<path fill-rule="evenodd" clip-rule="evenodd" d="M47.2064 29.855C48.9172 28.8879 50.3068 29.6726 50.3068 31.607C50.3068 33.5413 48.9172 35.8956 47.2064 36.8649C45.4956 37.8321 44.106 37.0473 44.106 35.113C44.106 33.1786 45.4956 30.8243 47.2064 29.855Z" fill="#3E3E4E"/>
<path fill-rule="evenodd" clip-rule="evenodd" d="M47.1418 29.7468C47.6364 29.4965 48.0967 29.3799 48.5078 29.3799C48.8504 29.3799 49.1545 29.4584 49.4135 29.6153C49.7797 29.8359 50.0495 30.2071 50.1929 30.714C50.2657 30.977 50.3085 31.276 50.3064 31.609C50.3085 32.5762 49.966 33.6494 49.4093 34.606C48.8504 35.5647 48.0796 36.4046 47.2253 36.8945C46.3581 37.393 45.5659 37.4396 44.992 37.1215C44.4139 36.7991 44.0478 36.1076 44.0392 35.1129C44.0307 34.133 44.3732 33.0428 44.9342 32.0735C45.4974 31.1 46.281 30.2474 47.1482 29.7489H47.1461L47.1418 29.7468ZM47.2681 29.9632C46.4245 30.4298 45.6579 31.24 45.0991 32.169C44.5381 33.1022 44.1848 34.1585 44.1763 35.1129C44.1677 36.0546 44.4974 36.7206 45.0391 37.0324C45.5873 37.3484 46.3474 37.3039 47.1889 36.8351C48.0453 36.3579 48.8226 35.5371 49.3857 34.5911C49.951 33.6431 50.3 32.572 50.3043 31.6069C50.3043 31.2739 50.2614 30.9749 50.1822 30.7161C50.0302 30.224 49.7497 29.8677 49.3793 29.6726C49.1266 29.539 48.8333 29.4817 48.5121 29.505C48.1288 29.5347 47.7092 29.6874 47.2681 29.9632Z" fill="#999AB0"/>
<path fill-rule="evenodd" clip-rule="evenodd" d="M48.7305 32.4956C48.7305 33.4479 48.0475 34.6081 47.2039 35.0832C46.3603 35.5604 45.6772 35.1744 45.6772 34.22C45.6772 33.2655 46.3603 32.1075 47.2039 31.6324C48.0475 31.1551 48.7305 31.5412 48.7305 32.4935V32.4956Z" fill="#838396"/>
<path fill-rule="evenodd" clip-rule="evenodd" d="M21.3154 47.9063L23.8977 49.3655V43.7258L21.3154 42.2666V47.9063Z" fill="#3E3E4E"/>
<path fill-rule="evenodd" clip-rule="evenodd" d="M21.7026 42.4872L24.5011 44.0695L28.2782 41.9358L25.4797 40.3535L21.7026 42.4872Z" fill="#3E3E4E"/>
<path fill-rule="evenodd" clip-rule="evenodd" d="M28.7965 43.6773C28.7965 45.6116 27.4069 47.9659 25.6961 48.9352C23.9853 49.9024 22.5957 49.1176 22.5957 47.1833C22.5957 45.2489 23.9853 42.8946 25.6961 41.9253C27.4069 40.9582 28.7965 41.7429 28.7965 43.6773Z" fill="#3E3E4E"/>
<path fill-rule="evenodd" clip-rule="evenodd" d="M25.634 41.8171C26.1286 41.5668 26.5889 41.4502 27 41.4502C27.3426 41.4502 27.6466 41.5287 27.9057 41.6856C28.2719 41.9062 28.5417 42.2774 28.6851 42.7843C28.7579 43.0473 28.8007 43.3464 28.7986 43.6793C28.8007 44.6465 28.4581 45.7197 27.9014 46.6763C27.3426 47.635 26.5718 48.4749 25.7175 48.9648C24.8503 49.4633 24.0581 49.5099 23.4842 49.1918C22.9061 48.8694 22.54 48.1758 22.5314 47.1832C22.5228 46.2033 22.8654 45.1131 23.4264 44.1438C23.9895 43.1703 24.7732 42.3177 25.6404 41.8192H25.6382L25.634 41.8171ZM25.7603 42.0313C24.9167 42.498 24.1501 43.3082 23.5913 44.2372C23.0303 45.1704 22.677 46.2266 22.6684 47.1811C22.6599 48.1228 22.9896 48.7888 23.5313 49.1006C24.0795 49.4166 24.8396 49.3721 25.6811 48.9033C26.5375 48.4261 27.3148 47.6053 27.8779 46.6593C28.4432 45.7113 28.7922 44.6402 28.7965 43.6751C28.7965 43.3421 28.7536 43.0431 28.6744 42.7843C28.5224 42.2922 28.2419 41.9359 27.8715 41.7408C27.6188 41.6071 27.3255 41.5499 27.0043 41.5732C26.621 41.6029 26.2014 41.7556 25.7603 42.0313Z" fill="url(#paint9_linear_2360_97599)"/>
<path fill-rule="evenodd" clip-rule="evenodd" d="M27.2227 44.5659C27.2227 45.5182 26.5397 46.6784 25.6961 47.1535C24.8525 47.6307 24.1694 47.2447 24.1694 46.2902C24.1694 45.3358 24.8525 44.1777 25.6961 43.7026C26.5397 43.2254 27.2227 43.6114 27.2227 44.5659Z" fill="url(#paint10_linear_2360_97599)"/>
<path fill-rule="evenodd" clip-rule="evenodd" d="M35.0039 16.5077L49.2405 24.5568L56.0023 20.7984L41.7871 12.7642L35.006 16.5077H35.0039Z" fill="url(#paint11_linear_2360_97599)"/>
<g filter="url(#filter0_i_2360_97599)">
<path fill-rule="evenodd" clip-rule="evenodd" d="M16.0352 19.5638L30.2503 27.5981L42.9624 20.4122L28.7494 12.3779L16.0352 19.5638Z" fill="url(#paint12_linear_2360_97599)"/>
<path fill-rule="evenodd" clip-rule="evenodd" d="M16.0352 19.5638L30.2503 27.5981L42.9624 20.4122L28.7494 12.3779L16.0352 19.5638Z" fill="url(#paint13_angular_2360_97599)" fill-opacity="0.2"/>
</g>
<path fill-rule="evenodd" clip-rule="evenodd" d="M10.575 29.3375L10.0269 29.7977L24.5268 37.3527L25.0557 36.9009L30.2501 27.5983L16.035 19.564L10.5771 29.3396L10.575 29.3375Z" fill="url(#paint14_linear_2360_97599)"/>
<path fill-rule="evenodd" clip-rule="evenodd" d="M10.6245 29.9484L24.3601 37.2742L29.7772 27.7383L16.0352 20.1494L10.6245 29.9484Z" fill="url(#paint15_linear_2360_97599)"/>
<path fill-rule="evenodd" clip-rule="evenodd" d="M21.5403 47.8601C21.5403 45.4931 23.2404 42.6107 25.3345 41.4271C27.4285 40.2436 29.1286 41.2044 29.1286 43.5715L43.2089 35.6114C43.2089 33.2444 44.9068 30.362 47.0009 29.1785C49.095 27.9949 50.7951 28.9558 50.7951 31.3228L55.9981 28.381V20.8027L49.2363 24.5611L42.9584 20.4146L30.2442 27.6004L25.0497 36.9031L14.209 45.9236V52.0024L21.5382 47.8601H21.5403Z" fill="url(#paint16_linear_2360_97599)"/>
<path fill-rule="evenodd" clip-rule="evenodd" d="M35.3375 25.458L30.2501 28.334L25.0557 37.6366L35.3375 31.823V25.458ZM36.618 24.7347V31.0998L48.1545 24.5756L42.9601 21.146L36.6158 24.7326L36.618 24.7347Z" fill="url(#paint17_linear_2360_97599)"/>
<path fill-rule="evenodd" clip-rule="evenodd" d="M14.2129 49.0879L15.8123 48.1823V45.9595L14.2129 46.863V49.0879Z" fill="#CECEDB"/>
<path fill-rule="evenodd" clip-rule="evenodd" d="M0 43.9636L14.213 51.9979V45.9212L0 38.1987V43.9636Z" fill="url(#paint18_linear_2360_97599)"/>
<path fill-rule="evenodd" clip-rule="evenodd" d="M10.7485 47.1304L14.2129 49.088V46.861L10.7485 44.9033V47.1282V47.1304Z" fill="#F8F8FF"/>
<path fill-rule="evenodd" clip-rule="evenodd" d="M4.20117 45.5288L8.80682 48.1312V46.5829L4.20117 43.9805V45.5267V45.5288Z" fill="white"/>
<path fill-rule="evenodd" clip-rule="evenodd" d="M3.7041 43.1577L10.5751 47.0434V44.8036L3.7041 40.918V43.1577Z" fill="url(#paint19_linear_2360_97599)"/>
<path fill-rule="evenodd" clip-rule="evenodd" d="M3.58859 40.8693V43.1154L0 41.0962V38.8501L3.58859 40.8693Z" fill="#F8F8FF"/>
<path fill-rule="evenodd" clip-rule="evenodd" d="M26.1544 37.1448C26.0409 37.0811 25.8975 37.1617 25.8975 37.2911C25.8975 37.3505 25.9296 37.4056 25.9831 37.4375L28.242 38.7164V38.3304L26.1523 37.149L26.1544 37.1448Z" fill="url(#paint20_linear_2360_97599)"/>
<path fill-rule="evenodd" clip-rule="evenodd" d="M26.4946 36.7203L26.6809 36.8264V38.1053L29.0276 39.4309V37.9399L26.6809 36.6143L26.4946 36.7203Z" fill="#F8F8FF"/>
<path fill-rule="evenodd" clip-rule="evenodd" d="M28.8415 39.5351L29.0278 39.429L28.4326 39.0918L28.2441 39.1978L28.8415 39.5351Z" fill="#F8F8FF"/>
<path fill-rule="evenodd" clip-rule="evenodd" d="M26.4946 38.2093L28.8413 39.5349V38.0439L26.4946 36.7183V38.2093Z" fill="url(#paint21_linear_2360_97599)"/>
<path fill-rule="evenodd" clip-rule="evenodd" d="M10.1534 29.6958L24.527 37.3526L14.213 45.9213L0 38.1988L10.1534 29.6958Z" fill="url(#paint22_linear_2360_97599)"/>
<path fill-rule="evenodd" clip-rule="evenodd" d="M10.1534 29.6958L24.527 37.3526L14.213 45.9213L0 38.1988L10.1534 29.6958Z" fill="url(#paint23_angular_2360_97599)" fill-opacity="0.2"/>
<path d="M39.9283 21.3147C40.5557 21.6732 40.56 22.2564 39.9348 22.6149C39.3117 22.9733 38.2968 22.9733 37.6673 22.6149C37.0399 22.2564 37.0356 21.6732 37.6609 21.3147C38.2839 20.9563 39.301 20.9563 39.9283 21.3147Z" fill="#086FE8"/>
<path d="M44.669 39.0361C44.5277 39.7826 44.3843 40.5314 44.2429 41.2779C44.1016 42.0182 43.5385 42.7372 42.5514 43.3056C40.239 44.6355 36.4791 44.6355 34.1516 43.3056C33.1432 42.7287 32.5693 41.997 32.4323 41.244C32.2953 40.4953 32.1561 39.7487 32.019 39C32.1668 39.806 32.7813 40.5907 33.8626 41.2079C36.3549 42.6332 40.3824 42.6332 42.8598 41.2079C43.9175 40.5992 44.5213 39.8293 44.6712 39.0361H44.669Z" fill="url(#paint24_linear_2360_97599)"/>
<path d="M44.7352 24.2529L44.7074 38.8113C44.7052 39.7403 44.0886 40.6672 42.8574 41.3734C40.3822 42.7987 36.3547 42.7987 33.8602 41.3734C32.6055 40.6565 31.9803 39.7148 31.9824 38.7752L32.0103 24.2168C32.0081 25.1564 32.6333 26.0981 33.8881 26.815C36.3804 28.2403 40.4079 28.2403 42.8852 26.815C44.1164 26.1066 44.7309 25.1797 44.7352 24.2529Z" fill="url(#paint25_linear_2360_97599)"/>
<path d="M42.5663 19.5569C44.8937 20.8889 44.9066 23.0459 42.5941 24.3779C40.2817 25.7078 36.5218 25.7078 34.1943 24.3779C31.8669 23.0481 31.8541 20.8889 34.1665 19.559C36.479 18.2271 40.241 18.2271 42.5663 19.559V19.5569Z" fill="url(#paint26_linear_2360_97599)"/>
<path d="M42.5663 19.5569C44.8937 20.8889 44.9066 23.0459 42.5941 24.3779C40.2817 25.7078 36.5218 25.7078 34.1943 24.3779C31.8669 23.0481 31.8541 20.8889 34.1665 19.559C36.479 18.2271 40.241 18.2271 42.5663 19.559V19.5569Z" fill="url(#paint27_angular_2360_97599)" fill-opacity="0.2"/>
<path d="M39.234 21.2688C39.8614 21.6273 39.8657 22.2106 39.2404 22.569C38.6174 22.9274 37.6024 22.9274 36.9729 22.569C36.3456 22.2106 36.3413 21.6273 36.9665 21.2688C37.5896 20.9104 38.6066 20.9104 39.234 21.2688Z" fill="url(#paint28_linear_2360_97599)"/>
<path d="M44.2879 21.6184C44.3628 22.0299 44.4399 22.4414 44.5148 22.8528L44.5769 23.1901C44.6176 23.4149 44.6604 23.6397 44.7011 23.8624C44.896 24.9165 44.2922 26.0088 42.8876 26.8169C40.4124 28.2422 36.3848 28.2422 33.8904 26.8169C32.4622 26.0004 31.8477 24.8932 32.0511 23.8264C32.1924 23.0798 32.3359 22.3311 32.4772 21.5845C32.2888 22.5792 32.8626 23.6143 34.1944 24.3757C36.5219 25.7077 40.2839 25.7077 42.5942 24.3757C43.9046 23.6206 44.4677 22.6004 44.2879 21.6163V21.6184Z" fill="url(#paint29_linear_2360_97599)"/>
<path d="M11.3867 30.4168L23.0432 23.9775L25.0217 25.0783L14.1809 31.8952L11.3867 30.4168Z" fill="url(#paint30_linear_2360_97599)"/>
<path d="M15.3779 32.5421L25.9874 25.6064L27.4926 26.4421L17.5983 33.7256L15.3779 32.5421Z" fill="url(#paint31_linear_2360_97599)"/>
<g filter="url(#filter1_ii_2360_97599)">
<path fill-rule="evenodd" clip-rule="evenodd" d="M15.6775 5.62713C15.6506 5.64178 15.5999 5.69955 15.5999 5.82283V8.49987C15.5999 8.83124 15.3313 9.09987 14.9999 9.09987C14.6685 9.09987 14.3999 8.83124 14.3999 8.49987V5.82283C14.3999 5.4559 14.545 4.87639 15.1052 4.5724C15.6607 4.27099 16.3846 4.37468 17.2261 4.79615C18.8148 5.59193 30.9783 12.6674 36.8345 16.0895C36.8449 16.0955 36.8551 16.1019 36.865 16.1086C37.1653 16.3091 37.5857 16.6769 37.9363 17.1639C38.287 17.651 38.5999 18.303 38.5999 19.0586V21.4999C38.5999 21.8312 38.3313 22.0999 37.9999 22.0999C37.6685 22.0999 37.3999 21.8312 37.3999 21.4999V19.0586C37.3999 18.6377 37.2235 18.2276 36.9624 17.865C36.7075 17.5109 36.4026 17.2456 36.2123 17.1157C30.3177 13.6713 18.2303 6.64126 16.6886 5.86909C15.9641 5.50621 15.7093 5.6099 15.6775 5.62713Z" fill="url(#paint32_linear_2360_97599)"/>
</g>
</g>
<defs>
<filter id="filter0_i_2360_97599" x="16.0352" y="12.3779" width="26.9272" height="15.7202" filterUnits="userSpaceOnUse" color-interpolation-filters="sRGB">
<feFlood flood-opacity="0" result="BackgroundImageFix"/>
<feBlend mode="normal" in="SourceGraphic" in2="BackgroundImageFix" result="shape"/>
<feColorMatrix in="SourceAlpha" type="matrix" values="0 0 0 0 0 0 0 0 0 0 0 0 0 0 0 0 0 0 127 0" result="hardAlpha"/>
<feOffset dy="0.5"/>
<feGaussianBlur stdDeviation="0.5"/>
<feComposite in2="hardAlpha" operator="arithmetic" k2="-1" k3="1"/>
<feColorMatrix type="matrix" values="0 0 0 0 1 0 0 0 0 1 0 0 0 0 1 0 0 0 0.6 0"/>
<feBlend mode="normal" in2="shape" result="effect1_innerShadow_2360_97599"/>
</filter>
<filter id="filter1_ii_2360_97599" x="14.3999" y="3.39941" width="24.2002" height="19.7007" filterUnits="userSpaceOnUse" color-interpolation-filters="sRGB">
<feFlood flood-opacity="0" result="BackgroundImageFix"/>
<feBlend mode="normal" in="SourceGraphic" in2="BackgroundImageFix" result="shape"/>
<feColorMatrix in="SourceAlpha" type="matrix" values="0 0 0 0 0 0 0 0 0 0 0 0 0 0 0 0 0 0 127 0" result="hardAlpha"/>
<feOffset dy="1"/>
<feGaussianBlur stdDeviation="0.5"/>
<feComposite in2="hardAlpha" operator="arithmetic" k2="-1" k3="1"/>
<feColorMatrix type="matrix" values="0 0 0 0 1 0 0 0 0 1 0 0 0 0 1 0 0 0 0.4 0"/>
<feBlend mode="normal" in2="shape" result="effect1_innerShadow_2360_97599"/>
<feColorMatrix in="SourceAlpha" type="matrix" values="0 0 0 0 0 0 0 0 0 0 0 0 0 0 0 0 0 0 127 0" result="hardAlpha"/>
<feOffset dy="-1"/>
<feGaussianBlur stdDeviation="0.5"/>
<feComposite in2="hardAlpha" operator="arithmetic" k2="-1" k3="1"/>
<feColorMatrix type="matrix" values="0 0 0 0 0 0 0 0 0 0 0 0 0 0 0 0 0 0 0.1 0"/>
<feBlend mode="normal" in2="effect1_innerShadow_2360_97599" result="effect2_innerShadow_2360_97599"/>
</filter>
<radialGradient id="paint0_angular_2360_97599" cx="0" cy="0" r="1" gradientUnits="userSpaceOnUse" gradientTransform="translate(38.4402 46.2022) rotate(-155.23) scale(7.64336 13.3268)">
<stop stop-color="#3E3E4E"/>
<stop offset="0.967431" stop-color="#707080"/>
<stop offset="1" stop-color="#717182"/>
</radialGradient>
<linearGradient id="paint1_linear_2360_97599" x1="38.4575" y1="41.6265" x2="38.4575" y2="46.4639" gradientUnits="userSpaceOnUse">
<stop stop-color="#C2C2D2"/>
<stop offset="0.582656" stop-color="#D0D0DA"/>
<stop offset="1" stop-color="#747486"/>
</linearGradient>
<linearGradient id="paint2_linear_2360_97599" x1="38.459" y1="41.2344" x2="38.459" y2="42.0266" gradientUnits="userSpaceOnUse">
<stop stop-color="#C2C2D2"/>
<stop offset="0.582656" stop-color="#D0D0DA"/>
<stop offset="1" stop-color="#747486"/>
</linearGradient>
<linearGradient id="paint3_linear_2360_97599" x1="-0.5" y1="21.5" x2="24" y2="21.5" gradientUnits="userSpaceOnUse">
<stop offset="0.241946" stop-color="#ABD1FF"/>
<stop offset="0.757582" stop-color="#086FE8"/>
</linearGradient>
<linearGradient id="paint4_linear_2360_97599" x1="14.9389" y1="5.55273" x2="11" y2="13.4999" gradientUnits="userSpaceOnUse">
<stop stop-color="#3793FF"/>
<stop offset="1" stop-color="#9FCBFF"/>
</linearGradient>
<radialGradient id="paint5_angular_2360_97599" cx="0" cy="0" r="1" gradientUnits="userSpaceOnUse" gradientTransform="translate(14.9389 8.96036) rotate(-135) scale(4.15625 7.24483)">
<stop stop-color="#5A9CFF"/>
<stop offset="1" stop-color="white"/>
</radialGradient>
<linearGradient id="paint6_linear_2360_97599" x1="5" y1="13.4998" x2="19" y2="13.4998" gradientUnits="userSpaceOnUse">
<stop stop-color="#7AB7FF"/>
<stop offset="1" stop-color="#086FE8"/>
</linearGradient>
<linearGradient id="paint7_linear_2360_97599" x1="14.9003" y1="7.75488" x2="14.9003" y2="9.59272" gradientUnits="userSpaceOnUse">
<stop stop-color="#086FE8"/>
<stop offset="1" stop-color="#0055B9"/>
</linearGradient>
<linearGradient id="paint8_linear_2360_97599" x1="10.2219" y1="26.6777" x2="10.2219" y2="29.3968" gradientUnits="userSpaceOnUse">
<stop stop-color="#E6E6F0"/>
<stop offset="1" stop-color="#747295"/>
</linearGradient>
<linearGradient id="paint9_linear_2360_97599" x1="25.665" y1="41.4502" x2="25.665" y2="49.3932" gradientUnits="userSpaceOnUse">
<stop stop-color="#D2D2E0"/>
<stop offset="1" stop-color="#505163"/>
</linearGradient>
<linearGradient id="paint10_linear_2360_97599" x1="25.6961" y1="43.498" x2="26" y2="48" gradientUnits="userSpaceOnUse">
<stop stop-color="#B7B7CB"/>
<stop offset="1" stop-color="#707086"/>
</linearGradient>
<linearGradient id="paint11_linear_2360_97599" x1="42" y1="12.0004" x2="45.5031" y2="24.5568" gradientUnits="userSpaceOnUse">
<stop offset="0.0412295" stop-color="#F0F1FB"/>
<stop offset="1" stop-color="#B1B5CE"/>
</linearGradient>
<linearGradient id="paint12_linear_2360_97599" x1="29.4988" y1="12.3779" x2="29.4988" y2="27.5981" gradientUnits="userSpaceOnUse">
<stop stop-color="#F2F3FB"/>
<stop offset="0.418667" stop-color="#D9DAE3"/>
<stop offset="1" stop-color="#AEB1C8"/>
</linearGradient>
<radialGradient id="paint13_angular_2360_97599" cx="0" cy="0" r="1" gradientUnits="userSpaceOnUse" gradientTransform="translate(16 27.0001) rotate(-69.6236) scale(18.6682 33.0274)">
<stop stop-color="#D8DCEA"/>
<stop offset="1" stop-color="white"/>
</radialGradient>
<linearGradient id="paint14_linear_2360_97599" x1="20.1385" y1="19.564" x2="20.1385" y2="37.3527" gradientUnits="userSpaceOnUse">
<stop stop-color="white"/>
<stop offset="0.580495" stop-color="#555777"/>
<stop offset="1" stop-color="#85879E"/>
</linearGradient>
<linearGradient id="paint15_linear_2360_97599" x1="20.2009" y1="20.1494" x2="20.2009" y2="37.2742" gradientUnits="userSpaceOnUse">
<stop stop-color="#4D4F75"/>
<stop offset="1" stop-color="#141525"/>
</linearGradient>
<linearGradient id="paint16_linear_2360_97599" x1="35.1035" y1="20.4146" x2="25" y2="52.0004" gradientUnits="userSpaceOnUse">
<stop stop-color="#8087A2"/>
<stop offset="0.601329" stop-color="#C2C2D2"/>
<stop offset="1" stop-color="#AEAEC2"/>
</linearGradient>
<linearGradient id="paint17_linear_2360_97599" x1="36.6051" y1="21.146" x2="36.6051" y2="37.6366" gradientUnits="userSpaceOnUse">
<stop stop-color="#5F618E"/>
<stop offset="0.392991" stop-color="#282942"/>
<stop offset="1" stop-color="#202135"/>
</linearGradient>
<linearGradient id="paint18_linear_2360_97599" x1="7.10652" y1="38.1987" x2="7.10652" y2="51.9979" gradientUnits="userSpaceOnUse">
<stop stop-color="#E0E2E8"/>
<stop offset="1" stop-color="#B6BBD7"/>
</linearGradient>
<linearGradient id="paint19_linear_2360_97599" x1="7.1396" y1="40.918" x2="7.1396" y2="47.0434" gradientUnits="userSpaceOnUse">
<stop stop-color="#8787AB"/>
<stop offset="1" stop-color="#0E0E19"/>
</linearGradient>
<linearGradient id="paint20_linear_2360_97599" x1="27.0697" y1="37.1226" x2="27.0697" y2="38.7164" gradientUnits="userSpaceOnUse">
<stop stop-color="#9494AB"/>
<stop offset="1" stop-color="#45455C"/>
</linearGradient>
<linearGradient id="paint21_linear_2360_97599" x1="27.668" y1="36.7183" x2="27.668" y2="39.5349" gradientUnits="userSpaceOnUse">
<stop stop-color="#C9C8DB"/>
<stop offset="1" stop-color="#82809E"/>
</linearGradient>
<linearGradient id="paint22_linear_2360_97599" x1="-4.5" y1="37.5001" x2="21.5" y2="51.0001" gradientUnits="userSpaceOnUse">
<stop stop-color="white"/>
<stop offset="0.570274" stop-color="#DDDFF2"/>
</linearGradient>
<radialGradient id="paint23_angular_2360_97599" cx="0" cy="0" r="1" gradientUnits="userSpaceOnUse" gradientTransform="translate(9.5 44.5001) rotate(-70.3462) scale(14.8661 22.472)">
<stop stop-color="#B3B8BE"/>
<stop offset="1" stop-color="white"/>
</radialGradient>
<linearGradient id="paint24_linear_2360_97599" x1="38.3451" y1="39" x2="38.3451" y2="44.303" gradientUnits="userSpaceOnUse">
<stop stop-color="#086FE8"/>
<stop offset="1" stop-color="#0053B5"/>
</linearGradient>
<linearGradient id="paint25_linear_2360_97599" x1="26.5" y1="40.9999" x2="42.5" y2="40.9999" gradientUnits="userSpaceOnUse">
<stop stop-color="#74B4FF"/>
<stop offset="0.288822" stop-color="#9FCBFF"/>
<stop offset="1" stop-color="#086FE8"/>
</linearGradient>
<linearGradient id="paint26_linear_2360_97599" x1="38.3803" y1="18.5601" x2="38.3803" y2="25.3753" gradientUnits="userSpaceOnUse">
<stop stop-color="#3793FF"/>
<stop offset="1" stop-color="#83BCFF"/>
</linearGradient>
<radialGradient id="paint27_angular_2360_97599" cx="0" cy="0" r="1" gradientUnits="userSpaceOnUse" gradientTransform="translate(38.3803 21.9677) rotate(-135) scale(6.3186 11.0141)">
<stop stop-color="#075BFF"/>
<stop offset="1" stop-color="#C4D8FF"/>
</radialGradient>
<linearGradient id="paint28_linear_2360_97599" x1="38.1035" y1="21" x2="38.1035" y2="22.8378" gradientUnits="userSpaceOnUse">
<stop stop-color="#086FE8"/>
<stop offset="1" stop-color="#0058BF"/>
</linearGradient>
<linearGradient id="paint29_linear_2360_97599" x1="27.5" y1="27.8859" x2="41.5" y2="27.7997" gradientUnits="userSpaceOnUse">
<stop stop-color="#086FE8"/>
<stop offset="0.273438" stop-color="#68ADFF"/>
<stop offset="1" stop-color="#046FEE"/>
</linearGradient>
<linearGradient id="paint30_linear_2360_97599" x1="18.2042" y1="23.9775" x2="18.2042" y2="31.8952" gradientUnits="userSpaceOnUse">
<stop stop-color="#66647E"/>
<stop offset="1" stop-color="#908EA2" stop-opacity="0"/>
</linearGradient>
<linearGradient id="paint31_linear_2360_97599" x1="21.4353" y1="25.6064" x2="21.4353" y2="33.7256" gradientUnits="userSpaceOnUse">
<stop stop-color="#66647E"/>
<stop offset="1" stop-color="#908EA2" stop-opacity="0"/>
</linearGradient>
<linearGradient id="paint32_linear_2360_97599" x1="26.4999" y1="4.39941" x2="26.4999" y2="22.0999" gradientUnits="userSpaceOnUse">
<stop stop-color="#E1E1F3"/>
<stop offset="1" stop-color="#C8C8DC"/>
</linearGradient>
<clipPath id="clip0_2360_97599">
<rect width="56" height="48" fill="white" transform="translate(0 4)"/>
</clipPath>
</defs>
</svg>
