<svg width="56" height="56" viewBox="0 0 56 56" fill="none" xmlns="http://www.w3.org/2000/svg">
<g clip-path="url(#clip0_2329_123021)">
<path d="M33.154 1.01027V6.8849C33.1515 7.27964 33.0489 7.66857 32.8545 8.02164C32.66 8.3747 32.3788 8.68246 32.0324 8.92117L24.8427 12.6883C24.1922 13.0345 23.7211 12.6883 23.7211 11.884V5.88712C22.0049 7.3671 20.9843 9.39139 20.8722 11.5378L14.1425 15.0809C13.5256 15.4789 13.0212 16.0037 12.6703 16.6123C12.3195 17.221 12.1321 17.8963 12.1235 18.5833V48.1703C12.1223 48.7331 12.2846 49.2861 12.5943 49.7736C12.9039 50.2612 13.3498 50.6658 13.887 50.9468C14.4241 51.2278 15.0334 51.3751 15.6533 51.3738C16.2733 51.3726 16.8818 51.2228 17.4176 50.9396L32.5708 42.9371C33.4973 42.4527 34.267 41.7555 34.8025 40.9155C35.3381 40.0755 35.6205 39.1223 35.6216 38.1518V3.74906C35.6328 1.91641 34.6009 0.888095 33.154 1.01027Z" fill="url(#paint0_linear_2329_123021)"/>
<path d="M14.019 15.1011C13.4041 15.5008 12.9011 16.0259 12.5504 16.6342C12.1998 17.2425 12.0112 17.917 12 18.6035V24.9668L20.8384 28.795L27.0971 21.3321L14.7592 14.6938L14.019 15.1011Z" fill="url(#paint1_linear_2329_123021)"/>
<path d="M20.76 11.5684L14.8042 14.694L27.1084 21.3323L31.1463 16.7609L20.76 11.5684Z" fill="#E7B83F"/>
<path d="M14.0976 51.0514L22.4537 55.5312V52.2936L12.5049 47.376L14.0976 51.0514Z" fill="url(#paint2_linear_2329_123021)"/>
<path d="M43 13.1915L32.6692 8L23 12.8085L33.3308 18L43 13.1915Z" fill="url(#paint3_linear_2329_123021)"/>
<path d="M31.9648 10.3667L23.6087 5.90723L20.7598 11.5681L30.0805 16.4449L31.9648 10.3667Z" fill="#EFBC3A"/>
<path d="M34.1633 1.14258L42.8672 5.76491L42.3512 13.4518L32.8174 8.45279L34.5896 5.46965L34.1633 1.14258Z" fill="url(#paint4_linear_2329_123021)"/>
<path d="M33.1538 1.01038L41.5211 5.47998L42.8671 5.76506L34.2193 1.13255C33.8822 1.00718 33.5146 0.965029 33.1538 1.01038Z" fill="#FFCC00"/>
<g filter="url(#filter0_i_2329_123021)">
<path d="M41.5436 5.48V11.375C41.5354 11.7742 41.4246 12.1661 41.2202 12.5196C41.0157 12.8731 40.7232 13.1785 40.3659 13.4113L33.1651 17.1784C32.5145 17.5246 32.0434 17.1784 32.0434 16.3741V10.3569C30.326 11.8318 29.3048 13.8535 29.1945 15.9974L22.4647 19.5404C21.8498 19.9402 21.3469 20.4653 20.9962 21.0736C20.6456 21.6819 20.457 22.3564 20.4458 23.0428V52.6299C20.446 53.1922 20.6091 53.7447 20.9187 54.2318C21.2284 54.719 21.6737 55.1236 22.21 55.4052C22.7463 55.6868 23.3547 55.8354 23.9743 55.8361C24.5939 55.8368 25.2027 55.6897 25.7398 55.4094L41.0276 47.3967C41.9558 46.9114 42.7265 46.2126 43.2622 45.3707C43.7978 44.5287 44.0794 43.5735 44.0785 42.6012C44.0785 34.7921 44.0785 15.3559 44.0785 15.3457V8.21879C44 6.38614 42.9681 5.35782 41.5436 5.48Z" fill="url(#paint5_linear_2329_123021)"/>
</g>
<path d="M20.5 27.5205L12 23L12.144 47.5102L20.5002 52.0205L20.5 27.5205Z" fill="url(#paint6_linear_2329_123021)"/>
<path d="M23.5974 5.89746C23.4862 5.97908 23.3812 6.06754 23.2833 6.16219L23.0029 6.45745L31.3591 10.9271L31.9536 10.3671L23.5974 5.89746Z" fill="#FFCC00"/>
<path d="M37.6066 7.26144L31.8414 10.2955L28.0615 8.35084L35.9129 4.20703L37.6066 7.26144Z" fill="url(#paint7_radial_2329_123021)"/>
<path d="M35.4421 5.26609C35.4507 5.68394 35.5807 6.09232 35.819 6.4499C36.0574 6.80747 36.3955 7.10154 36.7993 7.30236C37.5171 7.56708 38.078 7.07836 38.0555 6.21295C38.0469 5.79633 37.9181 5.38906 37.6819 5.03175C37.4458 4.67445 37.1105 4.37961 36.7096 4.17668C35.9356 3.90178 35.4197 4.39049 35.4421 5.26609Z" fill="#AB6614"/>
<path d="M20.6704 11.9551V16.4654C21.0398 16.5321 21.4154 16.5662 21.792 16.5672V11.9551H20.6704Z" fill="url(#paint8_linear_2329_123021)"/>
<path d="M22.1509 11.9551V16.5468C22.4681 16.5366 22.7836 16.4991 23.093 16.4349V11.9551H22.1509Z" fill="url(#paint9_linear_2329_123021)"/>
<path d="M19.3691 11.9551V16.0276C19.6632 16.1909 19.9801 16.3176 20.3113 16.4043V11.9754L19.3691 11.9551Z" fill="url(#paint10_linear_2329_123021)"/>
<path d="M23.4517 11.9551V16.333C23.7841 16.2343 24.098 16.0901 24.3826 15.9054V11.9551H23.4517Z" fill="url(#paint11_linear_2329_123021)"/>
<path d="M25.0557 11.9551H24.7192V15.6102C24.9084 15.4149 25.0191 15.1673 25.0333 14.9077L25.0557 11.9551Z" fill="url(#paint12_linear_2329_123021)"/>
<path d="M18.5278 11.9551V14.9077C18.5379 15.0704 18.5849 15.2295 18.666 15.3749C18.7471 15.5204 18.8605 15.649 18.999 15.7527V11.9551H18.5278Z" fill="url(#paint13_linear_2329_123021)"/>
<path d="M18.999 11.955V15.7526C19.1133 15.8478 19.2372 15.9331 19.3691 16.0071V11.9346L18.999 11.955Z" fill="#8B4B00"/>
<path d="M20.311 11.9551V16.384L20.67 16.4654V11.9551H20.311Z" fill="#8B4B00"/>
<path d="M21.792 11.9551V16.5672H22.1509V11.9754L21.792 11.9551Z" fill="#8B4B00"/>
<path d="M23.0928 11.9551V16.4654L23.4517 16.3636V11.9856L23.0928 11.9551Z" fill="#8B4B00"/>
<path d="M24.3828 11.9551V15.9054C24.5126 15.8177 24.6328 15.7188 24.7417 15.6102V11.9551H24.3828Z" fill="#8B4B00"/>
<path d="M25.0557 11.955C25.0557 12.8815 23.5976 13.6247 21.7918 13.6247C19.986 13.6247 18.5278 12.8815 18.5278 11.955C18.5278 11.0285 19.986 10.2954 21.7918 10.2954C23.5976 10.2954 25.0557 11.0387 25.0557 11.955Z" fill="url(#paint14_linear_2329_123021)"/>
<g filter="url(#filter1_i_2329_123021)">
<path d="M24.3828 11.9552C24.3828 12.678 23.2611 13.2584 21.8366 13.2584C20.4122 13.2584 19.3018 12.678 19.3018 11.9552C19.3018 11.2323 20.4234 10.6621 21.8366 10.6621C23.2499 10.6621 24.3828 11.2425 24.3828 11.9552Z" fill="url(#paint15_linear_2329_123021)"/>
</g>
<path d="M28.3646 26.8607L39.8276 20.8537C40.523 20.4872 41.095 20.8538 41.095 21.7192V27.5734C41.0851 28.0025 40.9655 28.4236 40.7455 28.8035C40.5255 29.1834 40.2113 29.5117 39.8276 29.7624L28.3646 35.8102C27.6692 36.1767 27.0972 35.8102 27.0972 34.9447V29.0905C27.0983 28.6542 27.2139 28.2244 27.4343 27.8367C27.6547 27.449 27.9736 27.1144 28.3646 26.8607Z" fill="white"/>
<g filter="url(#filter2_i_2329_123021)">
<path d="M28.3646 47.9563L39.8276 41.9187C40.2132 41.6696 40.5289 41.3417 40.7491 40.9615C40.9692 40.5812 41.0877 40.1593 41.095 39.7297V23.8468C41.095 23.0018 40.523 22.6149 39.8276 22.9712L28.3646 28.9884C27.979 29.2375 27.6634 29.5654 27.4432 29.9457C27.2231 30.3259 27.1045 30.7479 27.0972 31.1774V47.0603C27.0972 47.9257 27.6692 48.3126 28.3646 47.9563Z" fill="url(#paint16_linear_2329_123021)"/>
</g>
<path d="M34.3877 30.7192C34.3877 30.7192 38.6723 37.2251 34.3877 39.5465C30.1031 41.8678 34.3877 30.7192 34.3877 30.7192Z" fill="white"/>
</g>
<defs>
<filter id="filter0_i_2329_123021" x="20.4458" y="5.47021" width="24.6328" height="50.6657" filterUnits="userSpaceOnUse" color-interpolation-filters="sRGB">
<feFlood flood-opacity="0" result="BackgroundImageFix"/>
<feBlend mode="normal" in="SourceGraphic" in2="BackgroundImageFix" result="shape"/>
<feColorMatrix in="SourceAlpha" type="matrix" values="0 0 0 0 0 0 0 0 0 0 0 0 0 0 0 0 0 0 127 0" result="hardAlpha"/>
<feOffset dx="1" dy="0.3"/>
<feGaussianBlur stdDeviation="0.5"/>
<feComposite in2="hardAlpha" operator="arithmetic" k2="-1" k3="1"/>
<feColorMatrix type="matrix" values="0 0 0 0 1 0 0 0 0 1 0 0 0 0 1 0 0 0 0.25 0"/>
<feBlend mode="normal" in2="shape" result="effect1_innerShadow_2329_123021"/>
</filter>
<filter id="filter1_i_2329_123021" x="19.3018" y="9.66211" width="5.08105" height="3.59619" filterUnits="userSpaceOnUse" color-interpolation-filters="sRGB">
<feFlood flood-opacity="0" result="BackgroundImageFix"/>
<feBlend mode="normal" in="SourceGraphic" in2="BackgroundImageFix" result="shape"/>
<feColorMatrix in="SourceAlpha" type="matrix" values="0 0 0 0 0 0 0 0 0 0 0 0 0 0 0 0 0 0 127 0" result="hardAlpha"/>
<feOffset dy="-1"/>
<feGaussianBlur stdDeviation="0.5"/>
<feComposite in2="hardAlpha" operator="arithmetic" k2="-1" k3="1"/>
<feColorMatrix type="matrix" values="0 0 0 0 0 0 0 0 0 0 0 0 0 0 0 0 0 0 0.1 0"/>
<feBlend mode="normal" in2="shape" result="effect1_innerShadow_2329_123021"/>
</filter>
<filter id="filter2_i_2329_123021" x="27.0972" y="22.8389" width="13.998" height="26.2495" filterUnits="userSpaceOnUse" color-interpolation-filters="sRGB">
<feFlood flood-opacity="0" result="BackgroundImageFix"/>
<feBlend mode="normal" in="SourceGraphic" in2="BackgroundImageFix" result="shape"/>
<feColorMatrix in="SourceAlpha" type="matrix" values="0 0 0 0 0 0 0 0 0 0 0 0 0 0 0 0 0 0 127 0" result="hardAlpha"/>
<feOffset dy="1"/>
<feGaussianBlur stdDeviation="0.5"/>
<feComposite in2="hardAlpha" operator="arithmetic" k2="-1" k3="1"/>
<feColorMatrix type="matrix" values="0 0 0 0 1 0 0 0 0 1 0 0 0 0 1 0 0 0 0.25 0"/>
<feBlend mode="normal" in2="shape" result="effect1_innerShadow_2329_123021"/>
</filter>
<linearGradient id="paint0_linear_2329_123021" x1="23.8726" y1="1.00049" x2="23.8726" y2="51.3738" gradientUnits="userSpaceOnUse">
<stop stop-color="#EBBA08"/>
<stop offset="1" stop-color="#F6D96F"/>
</linearGradient>
<linearGradient id="paint1_linear_2329_123021" x1="18" y1="26.4999" x2="17.5" y2="13.4999" gradientUnits="userSpaceOnUse">
<stop stop-color="#E5A428"/>
<stop offset="0.476326" stop-color="#EAB030"/>
<stop offset="1" stop-color="#EFBC3A"/>
</linearGradient>
<linearGradient id="paint2_linear_2329_123021" x1="17.4793" y1="47.376" x2="17.5" y2="54.4999" gradientUnits="userSpaceOnUse">
<stop offset="0.494178" stop-color="#F5D86E"/>
<stop offset="1" stop-color="#E7B83F"/>
</linearGradient>
<linearGradient id="paint3_linear_2329_123021" x1="33" y1="8" x2="33" y2="18" gradientUnits="userSpaceOnUse">
<stop stop-color="#E7B83F"/>
<stop offset="1" stop-color="#BF6700"/>
</linearGradient>
<linearGradient id="paint4_linear_2329_123021" x1="44" y1="6" x2="33" y2="10.5" gradientUnits="userSpaceOnUse">
<stop stop-color="#E4A500"/>
<stop offset="1" stop-color="#EFBC3A"/>
</linearGradient>
<linearGradient id="paint5_linear_2329_123021" x1="39" y1="9.00024" x2="19.5" y2="58.0002" gradientUnits="userSpaceOnUse">
<stop stop-color="#F9B813"/>
<stop offset="0.397483" stop-color="#FFC700"/>
<stop offset="0.679596" stop-color="#FDE272"/>
<stop offset="1" stop-color="#EBB700"/>
</linearGradient>
<linearGradient id="paint6_linear_2329_123021" x1="16" y1="22" x2="16.25" y2="52" gradientUnits="userSpaceOnUse">
<stop stop-color="#E39F21"/>
<stop offset="1" stop-color="#F5D86E"/>
</linearGradient>
<radialGradient id="paint7_radial_2329_123021" cx="0" cy="0" r="1" gradientUnits="userSpaceOnUse" gradientTransform="translate(32.834 7.25126) rotate(90) scale(3.04422 4.77252)">
<stop stop-color="#BA7523"/>
<stop offset="1" stop-color="#965100"/>
</radialGradient>
<linearGradient id="paint8_linear_2329_123021" x1="21.2312" y1="11.9551" x2="21.2312" y2="16.5672" gradientUnits="userSpaceOnUse">
<stop stop-color="#CB832F"/>
<stop offset="0.794041" stop-color="#965100"/>
<stop offset="1" stop-color="#7E4400"/>
</linearGradient>
<linearGradient id="paint9_linear_2329_123021" x1="22.6219" y1="11.9551" x2="22.6219" y2="16.5468" gradientUnits="userSpaceOnUse">
<stop stop-color="#CB832F"/>
<stop offset="0.794041" stop-color="#965100"/>
<stop offset="1" stop-color="#7E4400"/>
</linearGradient>
<linearGradient id="paint10_linear_2329_123021" x1="19.8402" y1="11.9551" x2="19.8402" y2="16.4043" gradientUnits="userSpaceOnUse">
<stop stop-color="#CB832F"/>
<stop offset="0.794041" stop-color="#965100"/>
<stop offset="1" stop-color="#7E4400"/>
</linearGradient>
<linearGradient id="paint11_linear_2329_123021" x1="23.9171" y1="11.9551" x2="23.9171" y2="16.333" gradientUnits="userSpaceOnUse">
<stop stop-color="#CB832F"/>
<stop offset="0.794041" stop-color="#965100"/>
<stop offset="1" stop-color="#7E4400"/>
</linearGradient>
<linearGradient id="paint12_linear_2329_123021" x1="24.8875" y1="11.9551" x2="24.8875" y2="15.6102" gradientUnits="userSpaceOnUse">
<stop stop-color="#CB832F"/>
<stop offset="0.794041" stop-color="#965100"/>
<stop offset="1" stop-color="#7E4400"/>
</linearGradient>
<linearGradient id="paint13_linear_2329_123021" x1="18.7634" y1="11.9551" x2="18.7634" y2="15.7527" gradientUnits="userSpaceOnUse">
<stop stop-color="#CB832F"/>
<stop offset="0.794041" stop-color="#965100"/>
<stop offset="1" stop-color="#7E4400"/>
</linearGradient>
<linearGradient id="paint14_linear_2329_123021" x1="21.7918" y1="10.2954" x2="24.5" y2="13.4999" gradientUnits="userSpaceOnUse">
<stop stop-color="#BA6F18"/>
<stop offset="1" stop-color="#653700"/>
</linearGradient>
<linearGradient id="paint15_linear_2329_123021" x1="21.8423" y1="10.6621" x2="21.8423" y2="13.2584" gradientUnits="userSpaceOnUse">
<stop stop-color="#C78435"/>
<stop offset="1" stop-color="#965100"/>
</linearGradient>
<linearGradient id="paint16_linear_2329_123021" x1="34.0961" y1="22.8389" x2="34.0961" y2="48.0883" gradientUnits="userSpaceOnUse">
<stop stop-color="#FFAB1E"/>
<stop offset="1" stop-color="#8A5700"/>
</linearGradient>
<clipPath id="clip0_2329_123021">
<rect width="32" height="54.8571" fill="white" transform="translate(12 1)"/>
</clipPath>
</defs>
</svg>
