<svg width="40" height="40" viewBox="0 0 40 40" fill="none" xmlns="http://www.w3.org/2000/svg">
<g clip-path="url(#clip0_1_1299)">
<path d="M2.15361 7.16504H27.5331C28.1676 7.16504 28.6867 7.68416 28.6867 8.31864V27.9298H2.15361C1.51913 27.9298 1 27.4107 1 26.7762V8.31864C1 7.68416 1.51913 7.16504 2.15361 7.16504Z" fill="#7B3FF1"/>
<path d="M28.6868 27.9298V11.6064H34.5586C35.3892 11.6064 36.1506 12.0448 36.5659 12.7716L38.3886 17.0976C38.7924 17.8013 39 18.5857 39 19.3932V25.6227C39 26.8916 37.9618 27.9298 36.6928 27.9298H28.6868Z" fill="#7B3FF1"/>
<path d="M32.724 20.293H29.8399V21.4466H32.724V20.293Z" fill="#7B3FF1"/>
<path d="M30.417 18.1704H36.7157C37.1541 18.1704 37.431 17.7089 37.2233 17.3283L35.689 13.2445C35.4929 12.8638 35.1007 12.6216 34.6623 12.6216H30.4055C30.0825 12.6216 29.8287 12.8754 29.8287 13.1984V17.5936C29.8287 17.9166 30.0825 18.1704 30.4055 18.1704H30.417Z" fill="#C4C4C4"/>
<path d="M8.49788 31.9675C10.7278 31.9675 12.5355 30.1598 12.5355 27.9299C12.5355 25.7 10.7278 23.8923 8.49788 23.8923C6.26795 23.8923 4.46024 25.7 4.46024 27.9299C4.46024 30.1598 6.26795 31.9675 8.49788 31.9675Z" fill="#282A2E"/>
<path d="M8.49806 29.6603C9.45374 29.6603 10.2285 28.8855 10.2285 27.9299C10.2285 26.9742 9.45374 26.1995 8.49806 26.1995C7.54237 26.1995 6.76764 26.9742 6.76764 27.9299C6.76764 28.8855 7.54237 29.6603 8.49806 29.6603Z" fill="#5A5C60"/>
<path d="M29.1137 31.9675C31.3436 31.9675 33.1513 30.1598 33.1513 27.9299C33.1513 25.7 31.3436 23.8923 29.1137 23.8923C26.8837 23.8923 25.076 25.7 25.076 27.9299C25.076 30.1598 26.8837 31.9675 29.1137 31.9675Z" fill="#282A2E"/>
<path d="M29.1139 29.6603C30.0695 29.6603 30.8443 28.8855 30.8443 27.9299C30.8443 26.9742 30.0695 26.1995 29.1139 26.1995C28.1582 26.1995 27.3834 26.9742 27.3834 27.9299C27.3834 28.8855 28.1582 29.6603 29.1139 29.6603Z" fill="#5A5C60"/>
</g>
<defs>
<clipPath id="clip0_1_1299">
<rect width="40" height="40" fill="white"/>
</clipPath>
</defs>
</svg>
