<svg width="24" height="25" viewBox="0 0 24 25" fill="none" xmlns="http://www.w3.org/2000/svg">
<path fill-rule="evenodd" clip-rule="evenodd" d="M12 1.25903C5.925 1.25903 1 6.18403 1 12.259C1 18.334 5.925 23.259 12 23.259C18.075 23.259 23 18.334 23 12.259C23 6.18403 18.075 1.25903 12 1.25903ZM16.768 10.399C16.8558 10.2987 16.9226 10.1818 16.9646 10.0552C17.0065 9.92863 17.0227 9.79495 17.0123 9.66202C17.0018 9.52909 16.9648 9.3996 16.9036 9.28116C16.8423 9.16273 16.758 9.05774 16.6555 8.97237C16.5531 8.88701 16.4346 8.823 16.3071 8.7841C16.1796 8.7452 16.0455 8.7322 15.9129 8.74586C15.7802 8.75953 15.6517 8.79958 15.5347 8.86367C15.4178 8.92775 15.3149 9.01458 15.232 9.11903L10.932 14.278L8.707 12.052C8.5184 11.8699 8.2658 11.7691 8.0036 11.7714C7.7414 11.7736 7.49059 11.8788 7.30518 12.0642C7.11977 12.2496 7.0146 12.5004 7.01233 12.7626C7.01005 13.0248 7.11084 13.2774 7.293 13.466L10.293 16.466C10.3913 16.5642 10.5089 16.6409 10.6384 16.6911C10.7679 16.7413 10.9065 16.764 11.0453 16.7577C11.184 16.7514 11.32 16.7162 11.4444 16.6545C11.5688 16.5927 11.6791 16.5057 11.768 16.399L16.768 10.399Z" fill="#315316"/>
</svg>
