<svg width="48" height="48" viewBox="0 0 48 48" fill="none" xmlns="http://www.w3.org/2000/svg">
<circle cx="24" cy="24" r="23.5" stroke="white"/>
<g clip-path="url(#clip0_134_26)">
<path d="M18.1763 33.7251V19.9668H13.6033V33.7251H18.1763ZM15.8904 18.0872C17.4851 18.0872 18.4777 17.0307 18.4777 15.7104C18.448 14.3604 17.4851 13.3333 15.9207 13.3333C14.3564 13.3333 13.3335 14.3604 13.3335 15.7104C13.3335 17.0307 14.3259 18.0872 15.8605 18.0872H15.8902H15.8904ZM20.7074 33.7251H25.2804V26.0418C25.2804 25.6306 25.3101 25.2198 25.4309 24.9258C25.7615 24.1043 26.5139 23.2534 27.7772 23.2534C29.432 23.2534 30.094 24.5151 30.094 26.3646V33.725H34.6667V25.8361C34.6667 21.6101 32.4106 19.6438 29.4018 19.6438C26.9349 19.6438 25.8517 21.0227 25.25 21.9619H25.2805V19.9665H20.7075C20.7675 21.2575 20.7075 33.7248 20.7075 33.7248L20.7074 33.7251Z" fill="white"/>
</g>
<defs>
<clipPath id="clip0_134_26">
<rect width="21.3333" height="20.3918" fill="white" transform="translate(13.3333 13.3333)"/>
</clipPath>
</defs>
</svg>
