<svg width="33" height="32" viewBox="0 0 33 32" fill="none" xmlns="http://www.w3.org/2000/svg">
<path d="M19.2624 6.66667C19.2624 5.95942 18.9814 5.28115 18.4813 4.78105C17.9812 4.28095 17.303 4 16.5957 4C15.8885 4 15.2102 4.28095 14.7101 4.78105C14.21 5.28115 13.9291 5.95942 13.9291 6.66667M26.2757 12.928L28.1224 24.928C28.1808 25.3078 28.1564 25.6957 28.051 26.0652C27.9455 26.4348 27.7614 26.7771 27.5113 27.0689C27.2612 27.3606 26.9511 27.5948 26.602 27.7556C26.253 27.9163 25.8733 27.9997 25.4891 28H7.70239C7.3179 28 6.93794 27.9169 6.58858 27.7564C6.23921 27.5959 5.92869 27.3617 5.67831 27.0699C5.42793 26.7781 5.24362 26.4356 5.13799 26.0659C5.03237 25.6962 5.00794 25.308 5.06639 24.928L6.91305 12.928C7.00992 12.2981 7.32916 11.7238 7.81295 11.3089C8.29675 10.8941 8.9131 10.6663 9.55039 10.6667H23.6411C24.2781 10.6666 24.8941 10.8946 25.3777 11.3094C25.8612 11.7242 26.1802 12.2983 26.2771 12.928H26.2757Z" stroke="#121212" stroke-width="1.5" stroke-linecap="round" stroke-linejoin="round"/>
</svg>
