<svg width="15" height="15" viewBox="0 0 15 15" fill="none" xmlns="http://www.w3.org/2000/svg">
<path d="M7.29293 0.284744C7.37066 0.15558 7.55792 0.15558 7.63566 0.284744L10.0539 4.30301C10.0818 4.34941 10.1274 4.3825 10.1801 4.39472L14.749 5.45288C14.8958 5.48689 14.9537 5.66499 14.8549 5.77883L11.7806 9.32041C11.7451 9.36131 11.7277 9.41486 11.7324 9.46881L12.1378 14.141C12.1509 14.2912 11.9994 14.4013 11.8606 14.3425L7.54231 12.5131C7.49245 12.4919 7.43614 12.4919 7.38628 12.5131L3.06802 14.3425C2.92921 14.4013 2.77771 14.2912 2.79075 14.141L3.19624 9.46881C3.20092 9.41486 3.18352 9.36131 3.14802 9.32041L0.0736965 5.77883C-0.0251253 5.66499 0.0327409 5.48689 0.179604 5.45288L4.74847 4.39472C4.80123 4.3825 4.84678 4.34941 4.87471 4.30301L7.29293 0.284744Z" fill="#FDB140"/>
</svg>
