<svg width="15" height="15" viewBox="0 0 15 15" fill="none" xmlns="http://www.w3.org/2000/svg">
<path d="M3.5256 8.99265L3.14802 9.32041L3.5256 8.99264L0.778061 5.82751L4.86129 4.88183C5.04595 4.83906 5.20537 4.72323 5.30311 4.56082L7.46429 0.969678L9.62547 4.56082C9.62547 4.56082 9.62548 4.56082 9.62548 4.56082C9.72322 4.72324 9.88264 4.83906 10.0673 4.88183L14.1505 5.82751L11.403 8.99264C11.2787 9.13579 11.2178 9.3232 11.2342 9.51204L11.5966 13.6876L7.73736 12.0527L7.54231 12.5131L7.73735 12.0527C7.56282 11.9787 7.36577 11.9787 7.19124 12.0527L7.38628 12.5131L7.19123 12.0527L3.33198 13.6876L3.69436 9.51204C3.71075 9.3232 3.64986 9.13579 3.5256 8.99265ZM2.87297 13.8821C2.8731 13.8821 2.87323 13.882 2.87336 13.8819L2.87297 13.8821Z" stroke="#FDB140"/>
</svg>
