<svg width="48" height="48" viewBox="0 0 48 48" fill="none" xmlns="http://www.w3.org/2000/svg">
<circle cx="24" cy="24" r="23.5" stroke="white"/>
<path d="M32.6667 18.6312C32.0292 18.9062 31.3354 19.1041 30.6208 19.1812C31.3627 18.7404 31.9183 18.0441 32.1833 17.2228C31.4871 17.637 30.7245 17.9274 29.9292 18.0812C29.5967 17.7258 29.1947 17.4427 28.7481 17.2495C28.3015 17.0563 27.8199 16.9572 27.3333 16.9583C25.3646 16.9583 23.7812 18.5541 23.7812 20.5124C23.7812 20.7874 23.8146 21.0624 23.8687 21.327C20.9208 21.1728 18.2917 19.7645 16.5437 17.6083C16.2252 18.1523 16.0583 18.7716 16.0604 19.402C16.0604 20.6353 16.6875 21.7228 17.6437 22.3624C17.0802 22.3402 16.5299 22.1853 16.0375 21.9103V21.9541C16.0375 23.6812 17.2583 25.1124 18.8854 25.4416C18.5799 25.521 18.2656 25.5615 17.95 25.5624C17.7187 25.5624 17.5 25.5395 17.2792 25.5083C17.7292 26.9166 19.0396 27.9395 20.6 27.9728C19.3792 28.9291 17.85 29.4916 16.1896 29.4916C15.8917 29.4916 15.6167 29.4812 15.3312 29.4478C16.9062 30.4583 18.775 31.0416 20.7875 31.0416C27.3208 31.0416 30.8958 25.6291 30.8958 20.9312C30.8958 20.777 30.8958 20.6228 30.8854 20.4687C31.5771 19.9624 32.1833 19.3353 32.6667 18.6312Z" fill="white"/>
</svg>
