<svg width="48" height="48" viewBox="0 0 48 48" fill="none" xmlns="http://www.w3.org/2000/svg">
<circle cx="24" cy="24" r="23.5" stroke="white"/>
<path fill-rule="evenodd" clip-rule="evenodd" d="M22.1644 26.3358V21.3403L26.9671 23.8469L22.1644 26.3358ZM32.7111 20.4754C32.7111 20.4754 32.5378 19.2496 32.0044 18.71C31.3289 18.0025 30.5706 17.9989 30.2231 17.9571C27.736 17.7776 24.0035 17.7776 24.0035 17.7776H23.9964C23.9964 17.7776 20.2649 17.7776 17.7769 17.9571C17.4293 17.9989 16.672 18.0016 15.9955 18.71C15.4622 19.2496 15.2889 20.4754 15.2889 20.4754C15.2889 20.4754 15.1111 21.9136 15.1111 23.3527V24.7011C15.1111 26.1394 15.2889 27.5785 15.2889 27.5785C15.2889 27.5785 15.4622 28.8034 15.9955 29.3429C16.6711 30.0514 17.56 30.0283 17.9555 30.1029C19.3778 30.2389 24 30.2807 24 30.2807C24 30.2807 27.736 30.2754 30.2231 30.0958C30.5706 30.054 31.3289 30.0514 32.0044 29.3429C32.5378 28.8034 32.7111 27.5785 32.7111 27.5785C32.7111 27.5785 32.8889 26.1394 32.8889 24.7011V23.3527C32.8889 21.9136 32.7111 20.4754 32.7111 20.4754Z" fill="white"/>
</svg>
